<?xml version="1.0" encoding="utf-8"?>
<!-- Generator: Adobe Illustrator 20.0.0, SVG Export Plug-In . SVG Version: 6.00 Build 0)  -->
<svg version="1.1" id="Layer_1" xmlns="http://www.w3.org/2000/svg" xmlns:xlink="http://www.w3.org/1999/xlink" x="0px" y="0px"
	 viewBox="0 0 110 110" style="enable-background:new 0 0 110 110;" xml:space="preserve">
<style type="text/css">
	.st0{fill:#1A3D82;}
	.st1{fill:#18BAFB;}
</style>
<g>
	<path class="st0" d="M67,29.2c0.7,0,1.4,0.3,2,0.8c1.1,1.1,1.1,2.9,0,3.9c0,0-19,18.8-19,18.8c-0.4,0.4-0.7,1-0.8,1.5
		c-0.2,0.9,0.1,1.8,0.8,2.5c0.5,0.5,1.3,0.8,2,0.8c0.7,0,1.4-0.3,2-0.8l9.3-9.2c0.6-0.5,1.3-0.8,2-0.8c0.7,0,1.4,0.3,2,0.8
		c1.1,1.1,1.1,2.9,0,4L58.9,60c-1.1,1.1-1.1,2.9,0,4c0.6,0.6,1.3,0.8,2,0.8c0.6,0,1.2-0.2,1.7-0.5l5.2-5.1c0.5-0.5,1.3-0.8,2-0.8
		c0.7,0,1.4,0.3,2,0.8c1.1,1.1,1.1,2.9,0,3.9c0,0-6.6,6.6-6.6,6.6l-2.7,2.7c-1.1,1.1-1.1,2.9,0,4.1c0.6,0.6,1.3,0.8,2.1,0.8
		c0.6,0,1.2-0.2,1.7-0.5l4.9-4.9c0.6-0.5,1.3-0.8,2-0.8c0.7,0,1.4,0.3,2,0.8c1.1,1.1,1.1,2.9,0,4L63.2,87.6
		c-0.3,0.3-0.7,0.5-1.1,0.7c-2.8,2-6.1,3.3-9.6,3.8c-0.9,0.1-1.9,0.2-2.8,0.2c-11.7,0-21.3-9.4-21.3-21V35.7c0,0,0.1-0.1,0.2-0.1
		c0.6,0,2.6,0.5,2.6,0.5c2.3,0.3,4.2,2.7,4.2,5c0,0,0,11.5,0,11.5c0,0.7,0.3,1.5,0.8,2c0.5,0.5,1.3,0.8,2,0.8c0.7,0,1.4-0.3,2-0.8
		L65,30C65.6,29.5,66.3,29.2,67,29.2 M35.4,52.7L35.4,52.7 M67,23.8c-2.2,0-4.2,0.8-5.8,2.4L40.7,46.6c0-2.7,0-5.4,0-5.4
		c0-4.8-3.7-9.3-8.4-10.2c-2.5-0.7-3.4-0.7-3.8-0.7c-3.1,0-5.5,2.4-5.5,5.4v35.6c0,14.6,12,26.4,26.6,26.4c1.2,0,2.4-0.1,3.5-0.2
		c4.1-0.5,8.1-2.1,11.6-4.4c0.8-0.4,1.6-0.9,2.3-1.6l11.9-11.8c1.6-1.5,2.4-3.6,2.4-5.8c0-2.2-0.9-4.3-2.4-5.8
		c-0.8-0.8-1.7-1.4-2.8-1.8c1.2-1.4,1.8-3.2,1.8-5.1c0-2.2-0.9-4.3-2.4-5.8c-0.9-0.9-1.9-1.5-3-1.9c0.7-1.2,1.1-2.6,1.1-4
		c0-2.2-0.9-4.3-2.4-5.8c-0.7-0.7-1.6-1.3-2.5-1.7c1.6-1.6,3.1-3.1,4.2-4.2c1.6-1.5,2.4-3.6,2.4-5.8c0-2.2-0.9-4.3-2.4-5.8
		C71.2,24.7,69.2,23.8,67,23.8L67,23.8z"/>
	<g>
		<path class="st1" d="M77.7,46c-1,0-2-0.5-2.7-1.3c-1.1-1.5-0.8-3.6,0.7-4.7c3-2.2,4.6-5.6,4.6-9.3c0-6.4-5.2-11.6-11.6-11.6
			c-4.5,0-8.6,2.6-10.5,6.6c-0.8,1.7-2.8,2.4-4.5,1.6c-1.7-0.8-2.4-2.8-1.6-4.5c3-6.4,9.5-10.5,16.6-10.5c10.1,0,18.3,8.2,18.3,18.3
			c0,5.8-2.7,11.2-7.3,14.7C79.1,45.8,78.4,46,77.7,46z"/>
	</g>
</g>
</svg>
