<?xml version="1.0" encoding="utf-8"?>
<!-- Generator: Adobe Illustrator 20.0.0, SVG Export Plug-In . SVG Version: 6.00 Build 0)  -->
<svg version="1.1" id="Layer_1" xmlns="http://www.w3.org/2000/svg" xmlns:xlink="http://www.w3.org/1999/xlink" x="0px" y="0px"
	 viewBox="0 0 110 110" style="enable-background:new 0 0 110 110;" xml:space="preserve">
<style type="text/css">
	.st0{fill:#697D99;}
	.st1{fill:#1A3D82;}
	.st2{fill:#18BAFB;}
</style>
<g>
	<g>
		<g>
			<path class="st0" d="M14.7,43.7c-0.7,0-1.3-0.6-1.3-1.3v-5.1c0-0.7,0.6-1.3,1.3-1.3s1.3,0.6,1.3,1.3v5.1
				C16,43.1,15.4,43.7,14.7,43.7z"/>
		</g>
		<g>
			<path class="st0" d="M14.7,32.3c-0.7,0-1.3-0.6-1.3-1.3v-6.2c0-0.7,0.6-1.3,1.3-1.3s1.3,0.6,1.3,1.3V31
				C16,31.7,15.4,32.3,14.7,32.3z"/>
		</g>
		<g>
			<path class="st0" d="M14.7,19.8c-0.7,0-1.3-0.6-1.3-1.3v-5.1c0-0.7,0.6-1.3,1.3-1.3h5.1c0.7,0,1.3,0.6,1.3,1.3s-0.6,1.3-1.3,1.3
				H16v3.8C16,19.2,15.4,19.8,14.7,19.8z"/>
		</g>
		<g>
			<path class="st0" d="M80.7,14.7H70.5c-0.7,0-1.3-0.6-1.3-1.3s0.6-1.3,1.3-1.3h10.1c0.7,0,1.3,0.6,1.3,1.3S81.4,14.7,80.7,14.7z
				 M60.4,14.7H50.3c-0.7,0-1.3-0.6-1.3-1.3s0.6-1.3,1.3-1.3h10.1c0.7,0,1.3,0.6,1.3,1.3S61.1,14.7,60.4,14.7z M40.1,14.7H30
				c-0.7,0-1.3-0.6-1.3-1.3s0.6-1.3,1.3-1.3h10.1c0.7,0,1.3,0.6,1.3,1.3S40.8,14.7,40.1,14.7z"/>
		</g>
		<g>
			<path class="st0" d="M96,19.8c-0.7,0-1.3-0.6-1.3-1.3v-3.8h-3.8c-0.7,0-1.3-0.6-1.3-1.3s0.6-1.3,1.3-1.3H96
				c0.7,0,1.3,0.6,1.3,1.3v5.1C97.2,19.2,96.7,19.8,96,19.8z"/>
		</g>
		<g>
			<path class="st0" d="M96,30.9c-0.7,0-1.3-0.6-1.3-1.3v-5.5c0-0.7,0.6-1.3,1.3-1.3s1.3,0.6,1.3,1.3v5.5
				C97.2,30.3,96.7,30.9,96,30.9z"/>
		</g>
		<g>
			<path class="st0" d="M96,41.5c-0.7,0-1.3-0.6-1.3-1.3v-5.1c0-0.7,0.6-1.3,1.3-1.3s1.3,0.6,1.3,1.3v5.1C97.2,41,96.7,41.5,96,41.5
				z"/>
		</g>
	</g>
	<g>
		<g>
			<path class="st0" d="M96,80.4c-0.7,0-1.3-0.6-1.3-1.3V74c0-0.7,0.6-1.3,1.3-1.3s1.3,0.6,1.3,1.3v5.1C97.2,79.9,96.7,80.4,96,80.4
				z"/>
		</g>
		<g>
			<path class="st0" d="M96,95.9h-5.1c-0.7,0-1.3-0.6-1.3-1.3s0.6-1.3,1.3-1.3h3.8v-3.8c0-0.7,0.6-1.3,1.3-1.3s1.3,0.6,1.3,1.3v5.1
				C97.2,95.4,96.7,95.9,96,95.9z"/>
		</g>
		<g>
			<path class="st0" d="M83.3,95.9h-7.6c-0.7,0-1.3-0.6-1.3-1.3s0.6-1.3,1.3-1.3h7.6c0.7,0,1.3,0.6,1.3,1.3S84,95.9,83.3,95.9z"/>
		</g>
		<g>
			<path class="st0" d="M68.1,95.9h-5.1c-0.7,0-1.3-0.6-1.3-1.3s0.6-1.3,1.3-1.3h5.1c0.7,0,1.3,0.6,1.3,1.3S68.8,95.9,68.1,95.9z"/>
		</g>
	</g>
	<g>
		<path class="st1" d="M62.5,39.9H14.7c-1.8,0-3.2,1.4-3.2,3.2v51.6c0,1.8,1.4,3.2,3.2,3.2h47.8c1.8,0,3.2-1.4,3.2-3.2V43.1
			C65.7,41.3,64.3,39.9,62.5,39.9z M59.3,91.5H17.9V46.3h41.4V91.5z"/>
		<path class="st1" d="M25.4,62.8h26.5c1.8,0,3.2-1.4,3.2-3.2s-1.4-3.2-3.2-3.2H25.4c-1.8,0-3.2,1.4-3.2,3.2S23.6,62.8,25.4,62.8z"
			/>
		<path class="st1" d="M25.4,73.2h26.5c1.8,0,3.2-1.4,3.2-3.2c0-1.8-1.4-3.2-3.2-3.2H25.4c-1.8,0-3.2,1.4-3.2,3.2
			C22.2,71.7,23.6,73.2,25.4,73.2z"/>
		<path class="st1" d="M25.4,83.1h26.5c1.8,0,3.2-1.4,3.2-3.2s-1.4-3.2-3.2-3.2H25.4c-1.8,0-3.2,1.4-3.2,3.2S23.6,83.1,25.4,83.1z"
			/>
	</g>
	<path class="st2" d="M95.4,46.8l-14.8-0.6c-1.6-0.1-3.3,1.3-3.3,3.1s1.3,3.3,3.1,3.3l7.2,0.3l-9.2,8.7c-1.3,1.2-1.3,3.2-0.1,4.5
		c0.6,0.7,1.5,1,2.3,1c0.8,0,1.6-0.3,2.2-0.9l9.2-8.7l-0.1,7.2c0,1.8,1.4,3.2,3.2,3.3c0,0,0,0,0.1,0c1.7,0,3.2-1.4,3.2-3.2L98.5,50
		C98.5,48.3,97.2,46.9,95.4,46.8z"/>
</g>
</svg>
