<?xml version="1.0" encoding="utf-8"?>
<!-- Generator: Adobe Illustrator 20.0.0, SVG Export Plug-In . SVG Version: 6.00 Build 0)  -->
<svg version="1.1" id="Layer_1" xmlns="http://www.w3.org/2000/svg" xmlns:xlink="http://www.w3.org/1999/xlink" x="0px" y="0px"
	 viewBox="0 0 110 110" style="enable-background:new 0 0 110 110;" xml:space="preserve">
<style type="text/css">
	.st0{fill:#1A3D82;}
	.st1{fill:#18BAFB;}
</style>
<g>
	<g id="XMLID_1_">
		<g id="XMLID_2_">
			<path class="st0" d="M67.6,95.1c-0.5,0-1.1-0.1-1.5-0.4l-16.9-8.9l-16.9,8.9c-1.1,0.6-2.5,0.5-3.5-0.2c-1-0.7-1.5-2-1.3-3.2
				l3.2-18.9L16.9,59c-0.9-0.9-1.2-2.2-0.8-3.4c0.4-1.2,1.4-2.1,2.7-2.2l18.9-2.8l8.5-17.2c0.6-1.1,1.7-1.8,3-1.8s2.4,0.7,3,1.8
				l8.5,17.2l19,2.8c1.2,0.2,2.3,1,2.7,2.2c0.4,1.2,0.1,2.5-0.8,3.4L67.6,72.3l3.2,18.9c0.2,1.2-0.3,2.5-1.3,3.2
				C68.9,94.9,68.3,95.1,67.6,95.1z M49.1,78.8c0.5,0,1.1,0.1,1.5,0.4l12.6,6.6l-2.4-14c-0.2-1.1,0.2-2.2,0.9-2.9l10.2-9.9l-14.1-2
				c-1.1-0.2-2-0.8-2.5-1.8l-6.3-12.7l-6.3,12.7c-0.5,1-1.4,1.6-2.5,1.8l-14,2l10.1,9.9c0.8,0.8,1.1,1.8,0.9,2.9l-2.4,14l12.5-6.6
				C48,78.9,48.6,78.8,49.1,78.8z"/>
		</g>
	</g>
	<g>
		<path class="st0" d="M26.3,42.2c-5.8,0-10.6-4.7-10.6-10.6c0-5.8,4.7-10.6,10.6-10.6s10.6,4.7,10.6,10.6
			C36.9,37.4,32.2,42.2,26.3,42.2z M26.3,27.7c-2.2,0-4,1.8-4,4c0,2.2,1.8,4,4,4s4-1.8,4-4C30.3,29.4,28.5,27.7,26.3,27.7z"/>
	</g>
	<g>
		<path class="st1" d="M78.5,46.9c-9.1,0-16.5-7.4-16.5-16.5c0-9.1,7.4-16.5,16.5-16.5c9.1,0,16.5,7.4,16.5,16.5
			C95,39.5,87.6,46.9,78.5,46.9z M78.5,20.4c-5.5,0-10,4.5-10,10c0,5.5,4.5,10,10,10c5.5,0,10-4.5,10-10
			C88.4,24.8,83.9,20.4,78.5,20.4z"/>
	</g>
</g>
</svg>
