<?xml version="1.0" encoding="utf-8"?>
<!-- Generator: Adobe Illustrator 20.0.0, SVG Export Plug-In . SVG Version: 6.00 Build 0)  -->
<svg version="1.1" id="Layer_1" xmlns="http://www.w3.org/2000/svg" xmlns:xlink="http://www.w3.org/1999/xlink" x="0px" y="0px"
	 viewBox="0 0 110 110" style="enable-background:new 0 0 110 110;" xml:space="preserve">
<style type="text/css">
	.st0{fill:#1A3D82;}
	.st1{fill:#18BAFB;}
</style>
<path class="st0" d="M81.6,62.4c-1.7,0-3.1,1.4-3.1,3.1v3.9H17.2V43.7c0-1.8,1.4-3.2,3.2-3.2h42.2c1.7,0,3.1-1.4,3.1-3.1
	c0-1.7-1.4-3.1-3.1-3.1H20.4c-5.2,0-9.4,4.2-9.4,9.4V77c0,5.2,4.2,9.4,9.4,9.4h24.4v4.4H33.9c-1.7,0-3.1,1.4-3.1,3.1
	s1.4,3.1,3.1,3.1h27.8c1.7,0,3.1-1.4,3.1-3.1s-1.4-3.1-3.1-3.1H50.9v-4.4h24.4c5.2,0,9.4-4.2,9.4-9.4V65.5
	C84.7,63.8,83.3,62.4,81.6,62.4z M75.3,80.2H20.4c-1.8,0-3.2-1.4-3.2-3.2v-1.4h61.4V77C78.5,78.8,77.1,80.2,75.3,80.2z"/>
<g>
	<path class="st1" d="M89,30H71c0-3.9,2.5-7.5,6.3-8.9c4.4-1.6,9.2,0.2,11.5,4.2c0.8,1.5,2.7,2,4.2,1.2c1.5-0.8,2-2.7,1.2-4.2
		c-3.8-6.7-11.8-9.6-19-7c-6.7,2.4-10.8,8.9-10.3,15.9c-3.7,1.8-6.2,5.6-6.2,10v13.4c0,6.2,5,11.2,11.2,11.2H89
		c6.2,0,11.2-5,11.2-11.2V41.2C100.2,35,95.1,30,89,30z M94,54.5c0,2.8-2.3,5-5,5H69.9c-2.8,0-5-2.3-5-5V41.2c0-2.8,2.3-5,5-5H89
		c2.8,0,5,2.3,5,5V54.5z"/>
	<path class="st1" d="M79.4,42.6c-2,0-3.7,1.7-3.7,3.7v4.9c0,2,1.7,3.7,3.7,3.7c2,0,3.7-1.7,3.7-3.7v-4.9
		C83.1,44.3,81.5,42.6,79.4,42.6z"/>
</g>
</svg>
