<?xml version="1.0" encoding="utf-8"?>
<!-- Generator: Adobe Illustrator 20.0.0, SVG Export Plug-In . SVG Version: 6.00 Build 0)  -->
<svg version="1.1" id="Layer_1" xmlns="http://www.w3.org/2000/svg" xmlns:xlink="http://www.w3.org/1999/xlink" x="0px" y="0px"
	 viewBox="0 0 110 110" style="enable-background:new 0 0 110 110;" xml:space="preserve">
<style type="text/css">
	.st0{fill:#1A3D82;}
	.st1{fill:#18BAFB;}
</style>
<g>
	<path class="st0" d="M81.1,88.9H26.4c-7.9,0-14.2-6.4-14.2-14.2V33.3c0-7.9,6.4-14.2,14.2-14.2h54.7c7.9,0,14.2,6.4,14.2,14.2v41.4
		C95.4,82.6,89,88.9,81.1,88.9z M26.4,25.9c-4.1,0-7.4,3.3-7.4,7.4v41.4c0,4.1,3.3,7.4,7.4,7.4h54.7c4.1,0,7.4-3.3,7.4-7.4V33.3
		c0-4.1-3.3-7.4-7.4-7.4H26.4z"/>
</g>
<g>
	<g>
		<path class="st1" d="M48.8,41.8c0.4-2.4,2.5-4.2,5-4.2c2.5,0,4.5,1.8,5,4.1c0.3-0.1,0.7-0.2,1.1-0.2c0.5-0.1,0.9-0.1,1.4-0.1
			c0.3,0,0.6,0,0.9,0.1c-0.6-4.1-4.2-7.2-8.4-7.2c-4.3,0-7.8,3.1-8.4,7.2c0.2,0,0.4,0,0.7,0C47,41.4,47.9,41.5,48.8,41.8z"/>
	</g>
	<g>
		<path class="st1" d="M66.1,44c-1.3-1.2-3.1-1.9-5-1.9c-0.4,0-0.8,0-1.2,0.1c-0.5,0.1-1.5,0.3-2.7,1c-0.3,0.2-0.8,0.5-1.2,0.8
			c-0.9,0.8-1.8,1.8-2.5,3.1c-0.4-1.1-1.1-2.1-1.9-2.9c-1.4-1.3-3.2-2-5.2-2c-4.2,0-7.5,3.4-7.5,7.5c0,4.2,3.4,7.5,7.5,7.5
			c0.2,0,0.4,0,0.6,0l8.7,0l5.3,0l0.1,0c0.3,0,0.9-0.1,1.1-0.1c3.7-0.5,6.5-3.7,6.5-7.5C68.7,47.4,67.7,45.4,66.1,44z M47.2,53.7
			c-0.2,0-0.5,0.1-0.7,0.1c0,0,0,0,0,0c-0.7,0-1.4-0.2-1.9-0.5c-1.3-0.7-2.2-2.1-2.2-3.6c0-2.3,1.9-4.1,4.1-4.1
			c1.5,0,2.7,0.8,3.5,1.9c0.4,0.6,0.6,1.4,0.6,2.2C50.6,51.7,49.1,53.4,47.2,53.7z M64,52.6c-0.3,0.3-0.6,0.5-1,0.7
			c-0.4,0.2-0.8,0.4-1.3,0.4c-0.1,0-0.5,0-0.8,0.1l-7.3,0c0.7-0.8,1.3-1.7,1.8-2.8c0.1-0.2,0.2-0.5,0.4-0.8c1.8-4.1,4.1-4.6,4.6-4.7
			l0.1,0c0.2,0,0.5-0.1,0.7-0.1c0.7,0,1.4,0.2,2,0.5c1.2,0.7,2.1,2.1,2.1,3.6C65.3,50.8,64.8,51.8,64,52.6z"/>
	</g>
</g>
<g>
	<path class="st0" d="M55.9,74.7c-11.8,0-22.8-6.2-28.9-11.6c-1.4-1.3-1.6-3.4-0.3-4.9c1.2-1.4,3.4-1.6,4.9-0.3
		c1,0.9,25.3,21.5,44.1,0.3c1.3-1.4,3.4-1.6,4.9-0.3c1.4,1.3,1.6,3.4,0.3,4.9C73.1,71.6,64.3,74.7,55.9,74.7z"/>
</g>
</svg>
