<?xml version="1.0" encoding="utf-8"?>
<!-- Generator: Adobe Illustrator 20.0.0, SVG Export Plug-In . SVG Version: 6.00 Build 0)  -->
<svg version="1.1" id="Layer_1" xmlns="http://www.w3.org/2000/svg" xmlns:xlink="http://www.w3.org/1999/xlink" x="0px" y="0px"
	 viewBox="0 0 110 110" style="enable-background:new 0 0 110 110;" xml:space="preserve">
<style type="text/css">
	.st0{fill:#1A3D82;}
	.st1{fill:#18BAFB;}
</style>
<g>
	<path class="st0" d="M53.9,39.9c2.5,0,4.6-2.1,4.6-4.6c0-0.7-0.2-1.3-0.4-1.9l0-10.2l12.4-3.3l-0.1,8.5c-0.1,0-0.1,0-0.2,0
		c-2.5,0-4.6,2.1-4.6,4.6s2.1,4.6,4.6,4.6c2.5,0,4.6-2.1,4.6-4.6c0-0.3,0-0.7-0.1-1l0.3-14.9c0-0.7-0.3-1.3-0.8-1.7
		c-0.5-0.4-1.2-0.6-1.9-0.4l-16.8,4.4c-0.9,0.3-1.6,1.1-1.6,2.1l0,9.2c-2.4,0.1-4.4,2.1-4.4,4.6C49.4,37.9,51.4,39.9,53.9,39.9z"/>
	<path class="st1" d="M92.5,48.9l-14-8.2c-0.8-0.5-1.6-0.5-1.9-0.5c-0.3,0-1.2,0-2,0.5c-0.5,0.3-2.1,1.3-2.1,3.1v16.4
		c0,1.9,1.6,2.8,2.2,3.2c0.6,0.3,1.3,0.5,2,0.5c0.7,0,1.5-0.2,2-0.5l14-8.2c1.1-0.6,1.8-1.9,1.8-3.2C94.3,50.7,93.6,49.5,92.5,48.9z
		 M77.8,57.6v-11l9.4,5.5L77.8,57.6z"/>
	<path class="st0" d="M31.2,57.8c0,4.7,3.8,8.4,8.4,8.4s8.4-3.8,8.4-8.4s-3.8-8.4-8.4-8.4S31.2,53.1,31.2,57.8z M42.7,57.8
		c0,1.7-1.4,3-3,3c-1.7,0-3-1.4-3-3s1.4-3,3-3C41.3,54.7,42.7,56.1,42.7,57.8z"/>
	<path class="st0" d="M79.8,68.4c-1.5,0-2.7,1.2-2.7,2.7V72L60.3,56.3c-0.5-0.5-1.2-0.7-1.9-0.7c-0.7,0-1.4,0.3-1.9,0.9L41.6,72.5
		l-7.9-6c-1.1-0.8-2.6-0.7-3.6,0.3l-9,9.3V50.6c0-1.6,1.3-2.8,2.8-2.8h41c1.5,0,2.7-1.2,2.7-2.7s-1.2-2.7-2.7-2.7h-41
		c-4.5,0-8.2,3.7-8.2,8.2v36.2c0,4.5,3.7,8.2,8.2,8.2h50.4c4.5,0,8.2-3.7,8.2-8.2V71.1C82.5,69.7,81.3,68.4,79.8,68.4z M74.3,89.6
		H23.9c-1.6,0-2.8-1.3-2.8-2.8v-2.9l11.3-11.6l8,6c1.1,0.8,2.7,0.7,3.6-0.3l14.7-15.9l18.5,17.3v7.4C77.1,88.4,75.8,89.6,74.3,89.6z
		"/>
</g>
</svg>
