<?xml version="1.0" encoding="utf-8"?>
<!-- Generator: Adobe Illustrator 20.0.0, SVG Export Plug-In . SVG Version: 6.00 Build 0)  -->
<svg version="1.1" id="Layer_1" xmlns="http://www.w3.org/2000/svg" xmlns:xlink="http://www.w3.org/1999/xlink" x="0px" y="0px"
	 viewBox="0 0 250 90" style="enable-background:new 0 0 250 90;" xml:space="preserve">
<style type="text/css">
	.st0{fill:#18BAFB;}
	.st1{fill:#1A3D82;}
	.st2{fill:#FFFFFF;}
	.st3{fill:#F1F2F2;}
	.st4{fill:#E5CEAE;}
	.st5{fill:#E58D05;}
	.st6{fill:#5073B3;}
	.st7{clip-path:url(#SVGID_2_);fill:#1A3D82;}
	.st8{clip-path:url(#SVGID_2_);fill:#18BAFB;}
</style>
<path class="st0" d="M100.6,90c0.4-11.1,9.6-20,20.8-20v-7.2c0-11.5-9.3-20.8-20.8-20.8s-20.8,9.3-20.8,20.8l0,27.2H100.6z"/>
<path class="st1" d="M121.3,90V70c-11.2,0-20.4,8.9-20.8,20H121.3z"/>
<path class="st1" d="M192.8,50.8V0h-18.1v26.4c0,10-8.1,18.1-18.1,18.1v6.3c0,10,8.1,18.1,18.1,18.1
	C184.7,68.9,192.8,60.8,192.8,50.8"/>
<path class="st2" d="M138.4,0v26.4c0,10,8.1,18.1,18.1,18.1V0H138.4z"/>
<path class="st3" d="M174.7,26.4V0h-18.1v44.5C166.5,44.5,174.7,36.4,174.7,26.4"/>
<path class="st4" d="M202.9,39.1c-5.7,5.5-14.7,5.4-20.1-0.2c-5.5-5.6-5.3-14.6,0.4-20.1c5.7-5.5,14.7-5.4,20.1,0.2
	C208.7,24.5,208.5,33.5,202.9,39.1"/>
<path class="st5" d="M203.2,18.9c-2.8-2.9-6.6-4.3-10.3-4.2l0.2,28.4c3.5-0.1,7.1-1.4,9.8-4.1C208.5,33.5,208.7,24.5,203.2,18.9"/>
<path class="st1" d="M66.7,3.6l-18.6,0l0,0l-31.9,0C9.9,3.6,4.8,8.7,4.8,15c0,6.3,5.1,11.4,11.4,11.4l18.6,0l0,0l31.9,0
	c6.3,0,11.4-5.1,11.4-11.4C78.1,8.7,73,3.6,66.7,3.6z"/>
<path class="st0" d="M66.8,22.3c0-1,0.8-1.8,1.8-1.8c1,0,1.8,0.8,1.8,1.8c0,1-0.8,1.8-1.8,1.8C67.6,24.1,66.8,23.3,66.8,22.3"/>
<path class="st0" d="M61.7,22.3c0-1,0.8-1.8,1.8-1.8c1,0,1.8,0.8,1.8,1.8c0,1-0.8,1.8-1.8,1.8C62.5,24.1,61.7,23.3,61.7,22.3"/>
<path class="st0" d="M56.5,22.3c0-1,0.8-1.8,1.8-1.8c1,0,1.8,0.8,1.8,1.8c0,1-0.8,1.8-1.8,1.8C57.3,24.1,56.5,23.3,56.5,22.3"/>
<path class="st0" d="M51.4,22.3c0-1,0.8-1.8,1.8-1.8c1,0,1.8,0.8,1.8,1.8c0,1-0.8,1.8-1.8,1.8C52.2,24.1,51.4,23.3,51.4,22.3"/>
<path class="st1" d="M66.8,29.5c0-1,0.8-1.8,1.8-1.8c1,0,1.8,0.8,1.8,1.8c0,1-0.8,1.8-1.8,1.8C67.6,31.3,66.8,30.5,66.8,29.5"/>
<path class="st1" d="M61.7,29.5c0-1,0.8-1.8,1.8-1.8c1,0,1.8,0.8,1.8,1.8c0,1-0.8,1.8-1.8,1.8C62.5,31.3,61.7,30.5,61.7,29.5"/>
<path class="st1" d="M56.5,29.5c0-1,0.8-1.8,1.8-1.8c1,0,1.8,0.8,1.8,1.8c0,1-0.8,1.8-1.8,1.8C57.3,31.3,56.5,30.5,56.5,29.5"/>
<path class="st1" d="M51.4,29.5c0-1,0.8-1.8,1.8-1.8c1,0,1.8,0.8,1.8,1.8c0,1-0.8,1.8-1.8,1.8C52.2,31.3,51.4,30.5,51.4,29.5"/>
<path class="st1" d="M66.8,36.8c0-1,0.8-1.8,1.8-1.8c1,0,1.8,0.8,1.8,1.8s-0.8,1.8-1.8,1.8C67.6,38.6,66.8,37.8,66.8,36.8"/>
<path class="st1" d="M61.7,36.8c0-1,0.8-1.8,1.8-1.8c1,0,1.8,0.8,1.8,1.8s-0.8,1.8-1.8,1.8C62.5,38.6,61.7,37.8,61.7,36.8"/>
<path class="st1" d="M56.5,36.8c0-1,0.8-1.8,1.8-1.8c1,0,1.8,0.8,1.8,1.8s-0.8,1.8-1.8,1.8C57.3,38.6,56.5,37.8,56.5,36.8"/>
<path class="st1" d="M51.4,36.8c0-1,0.8-1.8,1.8-1.8c1,0,1.8,0.8,1.8,1.8s-0.8,1.8-1.8,1.8C52.2,38.6,51.4,37.8,51.4,36.8"/>
<rect x="199.2" y="74.3" class="st6" width="12.1" height="15.7"/>
<rect x="199.2" y="66.5" class="st6" width="12.1" height="5.2"/>
<rect x="199.2" y="58.8" class="st6" width="12.1" height="5.2"/>
<rect x="199.2" y="53.9" class="st6" width="12.1" height="2.6"/>
<path class="st5" d="M224,3.1c0,0.9-0.7,1.6-1.6,1.6c-0.9,0-1.6-0.7-1.6-1.6c0-0.9,0.7-1.6,1.6-1.6C223.2,1.5,224,2.2,224,3.1"/>
<path class="st5" d="M228.6,3.1c0,0.9-0.7,1.6-1.6,1.6c-0.9,0-1.6-0.7-1.6-1.6c0-0.9,0.7-1.6,1.6-1.6C227.8,1.5,228.6,2.2,228.6,3.1
	"/>
<path class="st5" d="M233.2,3.1c0,0.9-0.7,1.6-1.6,1.6c-0.9,0-1.6-0.7-1.6-1.6c0-0.9,0.7-1.6,1.6-1.6C232.5,1.5,233.2,2.2,233.2,3.1
	"/>
<path class="st5" d="M224,8.1c0,0.9-0.7,1.6-1.6,1.6c-0.9,0-1.6-0.7-1.6-1.6c0-0.9,0.7-1.6,1.6-1.6C223.2,6.5,224,7.2,224,8.1"/>
<path class="st5" d="M228.6,8.1c0,0.9-0.7,1.6-1.6,1.6c-0.9,0-1.6-0.7-1.6-1.6c0-0.9,0.7-1.6,1.6-1.6C227.8,6.5,228.6,7.2,228.6,8.1
	"/>
<path class="st5" d="M233.2,8.1c0,0.9-0.7,1.6-1.6,1.6c-0.9,0-1.6-0.7-1.6-1.6c0-0.9,0.7-1.6,1.6-1.6C232.5,6.5,233.2,7.2,233.2,8.1
	"/>
<path class="st5" d="M224,13.1c0,0.9-0.7,1.6-1.6,1.6c-0.9,0-1.6-0.7-1.6-1.6c0-0.9,0.7-1.6,1.6-1.6C223.2,11.5,224,12.2,224,13.1"
	/>
<path class="st5" d="M228.6,13.1c0,0.9-0.7,1.6-1.6,1.6c-0.9,0-1.6-0.7-1.6-1.6c0-0.9,0.7-1.6,1.6-1.6
	C227.8,11.5,228.6,12.2,228.6,13.1"/>
<path class="st5" d="M233.2,13.1c0,0.9-0.7,1.6-1.6,1.6c-0.9,0-1.6-0.7-1.6-1.6c0-0.9,0.7-1.6,1.6-1.6
	C232.5,11.5,233.2,12.2,233.2,13.1"/>
<path class="st5" d="M237.8,13.1c0,0.9-0.7,1.6-1.6,1.6c-0.9,0-1.6-0.7-1.6-1.6c0-0.9,0.7-1.6,1.6-1.6
	C237.1,11.5,237.8,12.2,237.8,13.1"/>
<path class="st5" d="M242.4,13.1c0,0.9-0.7,1.6-1.6,1.6c-0.9,0-1.6-0.7-1.6-1.6c0-0.9,0.7-1.6,1.6-1.6
	C241.7,11.5,242.4,12.2,242.4,13.1"/>
<path class="st5" d="M247,13.1c0,0.9-0.7,1.6-1.6,1.6c-0.9,0-1.6-0.7-1.6-1.6c0-0.9,0.7-1.6,1.6-1.6C246.3,11.5,247,12.2,247,13.1"
	/>
<path class="st5" d="M224,18.1c0,0.9-0.7,1.6-1.6,1.6c-0.9,0-1.6-0.7-1.6-1.6c0-0.9,0.7-1.6,1.6-1.6C223.2,16.4,224,17.2,224,18.1"
	/>
<path class="st5" d="M228.6,18.1c0,0.9-0.7,1.6-1.6,1.6c-0.9,0-1.6-0.7-1.6-1.6c0-0.9,0.7-1.6,1.6-1.6
	C227.8,16.4,228.6,17.2,228.6,18.1"/>
<path class="st5" d="M233.2,18.1c0,0.9-0.7,1.6-1.6,1.6c-0.9,0-1.6-0.7-1.6-1.6c0-0.9,0.7-1.6,1.6-1.6
	C232.5,16.4,233.2,17.2,233.2,18.1"/>
<path class="st5" d="M237.8,18.1c0,0.9-0.7,1.6-1.6,1.6c-0.9,0-1.6-0.7-1.6-1.6c0-0.9,0.7-1.6,1.6-1.6
	C237.1,16.4,237.8,17.2,237.8,18.1"/>
<path class="st5" d="M242.4,18.1c0,0.9-0.7,1.6-1.6,1.6c-0.9,0-1.6-0.7-1.6-1.6c0-0.9,0.7-1.6,1.6-1.6
	C241.7,16.4,242.4,17.2,242.4,18.1"/>
<path class="st5" d="M247,18.1c0,0.9-0.7,1.6-1.6,1.6c-0.9,0-1.6-0.7-1.6-1.6c0-0.9,0.7-1.6,1.6-1.6C246.3,16.4,247,17.2,247,18.1"
	/>
<path class="st5" d="M233.2,23.1c0,0.9-0.7,1.6-1.6,1.6c-0.9,0-1.6-0.7-1.6-1.6c0-0.9,0.7-1.6,1.6-1.6
	C232.5,21.4,233.2,22.2,233.2,23.1"/>
<path class="st5" d="M237.8,23.1c0,0.9-0.7,1.6-1.6,1.6c-0.9,0-1.6-0.7-1.6-1.6c0-0.9,0.7-1.6,1.6-1.6
	C237.1,21.4,237.8,22.2,237.8,23.1"/>
<path class="st5" d="M242.4,23.1c0,0.9-0.7,1.6-1.6,1.6c-0.9,0-1.6-0.7-1.6-1.6c0-0.9,0.7-1.6,1.6-1.6
	C241.7,21.4,242.4,22.2,242.4,23.1"/>
<path class="st5" d="M247,23.1c0,0.9-0.7,1.6-1.6,1.6c-0.9,0-1.6-0.7-1.6-1.6c0-0.9,0.7-1.6,1.6-1.6C246.3,21.4,247,22.2,247,23.1"
	/>
<path class="st5" d="M233.2,28.1c0,0.9-0.7,1.6-1.6,1.6c-0.9,0-1.6-0.7-1.6-1.6c0-0.9,0.7-1.6,1.6-1.6
	C232.5,26.4,233.2,27.2,233.2,28.1"/>
<path class="st5" d="M237.8,28.1c0,0.9-0.7,1.6-1.6,1.6c-0.9,0-1.6-0.7-1.6-1.6c0-0.9,0.7-1.6,1.6-1.6
	C237.1,26.4,237.8,27.2,237.8,28.1"/>
<path class="st5" d="M242.4,28.1c0,0.9-0.7,1.6-1.6,1.6c-0.9,0-1.6-0.7-1.6-1.6c0-0.9,0.7-1.6,1.6-1.6
	C241.7,26.4,242.4,27.2,242.4,28.1"/>
<path class="st5" d="M247,28.1c0,0.9-0.7,1.6-1.6,1.6c-0.9,0-1.6-0.7-1.6-1.6c0-0.9,0.7-1.6,1.6-1.6C246.3,26.4,247,27.2,247,28.1"
	/>
<g>
	<path class="st2" d="M13.4,56.5c0,0.9-0.7,1.6-1.6,1.6c-0.9,0-1.6-0.7-1.6-1.6c0-0.9,0.7-1.6,1.6-1.6
		C12.7,54.8,13.4,55.6,13.4,56.5"/>
	<path class="st2" d="M18,56.5c0,0.9-0.7,1.6-1.6,1.6c-0.9,0-1.6-0.7-1.6-1.6c0-0.9,0.7-1.6,1.6-1.6C17.3,54.8,18,55.6,18,56.5"/>
	<path class="st2" d="M22.6,56.5c0,0.9-0.7,1.6-1.6,1.6c-0.9,0-1.6-0.7-1.6-1.6c0-0.9,0.7-1.6,1.6-1.6
		C21.9,54.8,22.6,55.6,22.6,56.5"/>
	<path class="st2" d="M13.4,61.5c0,0.9-0.7,1.6-1.6,1.6c-0.9,0-1.6-0.7-1.6-1.6c0-0.9,0.7-1.6,1.6-1.6
		C12.7,59.8,13.4,60.5,13.4,61.5"/>
	<path class="st2" d="M18,61.5c0,0.9-0.7,1.6-1.6,1.6c-0.9,0-1.6-0.7-1.6-1.6c0-0.9,0.7-1.6,1.6-1.6C17.3,59.8,18,60.5,18,61.5"/>
	<path class="st2" d="M22.6,61.5c0,0.9-0.7,1.6-1.6,1.6c-0.9,0-1.6-0.7-1.6-1.6c0-0.9,0.7-1.6,1.6-1.6
		C21.9,59.8,22.6,60.5,22.6,61.5"/>
	<path class="st2" d="M13.4,66.4c0,0.9-0.7,1.6-1.6,1.6c-0.9,0-1.6-0.7-1.6-1.6c0-0.9,0.7-1.6,1.6-1.6
		C12.7,64.8,13.4,65.5,13.4,66.4"/>
	<path class="st2" d="M18,66.4c0,0.9-0.7,1.6-1.6,1.6c-0.9,0-1.6-0.7-1.6-1.6c0-0.9,0.7-1.6,1.6-1.6C17.3,64.8,18,65.5,18,66.4"/>
	<path class="st2" d="M22.6,66.4c0,0.9-0.7,1.6-1.6,1.6c-0.9,0-1.6-0.7-1.6-1.6c0-0.9,0.7-1.6,1.6-1.6
		C21.9,64.8,22.6,65.5,22.6,66.4"/>
	<path class="st2" d="M27.2,66.4c0,0.9-0.7,1.6-1.6,1.6c-0.9,0-1.6-0.7-1.6-1.6c0-0.9,0.7-1.6,1.6-1.6
		C26.5,64.8,27.2,65.5,27.2,66.4"/>
	<path class="st2" d="M31.9,66.4c0,0.9-0.7,1.6-1.6,1.6c-0.9,0-1.6-0.7-1.6-1.6c0-0.9,0.7-1.6,1.6-1.6
		C31.1,64.8,31.9,65.5,31.9,66.4"/>
	<path class="st2" d="M36.5,66.4c0,0.9-0.7,1.6-1.6,1.6c-0.9,0-1.6-0.7-1.6-1.6c0-0.9,0.7-1.6,1.6-1.6
		C35.7,64.8,36.5,65.5,36.5,66.4"/>
	<path class="st2" d="M13.4,71.4c0,0.9-0.7,1.6-1.6,1.6c-0.9,0-1.6-0.7-1.6-1.6c0-0.9,0.7-1.6,1.6-1.6
		C12.7,69.8,13.4,70.5,13.4,71.4"/>
	<path class="st2" d="M18,71.4c0,0.9-0.7,1.6-1.6,1.6c-0.9,0-1.6-0.7-1.6-1.6c0-0.9,0.7-1.6,1.6-1.6C17.3,69.8,18,70.5,18,71.4"/>
	<path class="st2" d="M22.6,71.4c0,0.9-0.7,1.6-1.6,1.6c-0.9,0-1.6-0.7-1.6-1.6c0-0.9,0.7-1.6,1.6-1.6
		C21.9,69.8,22.6,70.5,22.6,71.4"/>
	<path class="st2" d="M27.2,71.4c0,0.9-0.7,1.6-1.6,1.6c-0.9,0-1.6-0.7-1.6-1.6c0-0.9,0.7-1.6,1.6-1.6
		C26.5,69.8,27.2,70.5,27.2,71.4"/>
	<path class="st2" d="M31.9,71.4c0,0.9-0.7,1.6-1.6,1.6c-0.9,0-1.6-0.7-1.6-1.6c0-0.9,0.7-1.6,1.6-1.6
		C31.1,69.8,31.9,70.5,31.9,71.4"/>
	<path class="st2" d="M36.5,71.4c0,0.9-0.7,1.6-1.6,1.6c-0.9,0-1.6-0.7-1.6-1.6c0-0.9,0.7-1.6,1.6-1.6
		C35.7,69.8,36.5,70.5,36.5,71.4"/>
	<path class="st2" d="M22.6,76.4c0,0.9-0.7,1.6-1.6,1.6c-0.9,0-1.6-0.7-1.6-1.6c0-0.9,0.7-1.6,1.6-1.6
		C21.9,74.8,22.6,75.5,22.6,76.4"/>
	<path class="st2" d="M27.2,76.4c0,0.9-0.7,1.6-1.6,1.6c-0.9,0-1.6-0.7-1.6-1.6c0-0.9,0.7-1.6,1.6-1.6
		C26.5,74.8,27.2,75.5,27.2,76.4"/>
	<path class="st2" d="M31.9,76.4c0,0.9-0.7,1.6-1.6,1.6c-0.9,0-1.6-0.7-1.6-1.6c0-0.9,0.7-1.6,1.6-1.6
		C31.1,74.8,31.9,75.5,31.9,76.4"/>
	<path class="st2" d="M36.5,76.4c0,0.9-0.7,1.6-1.6,1.6c-0.9,0-1.6-0.7-1.6-1.6c0-0.9,0.7-1.6,1.6-1.6
		C35.7,74.8,36.5,75.5,36.5,76.4"/>
	<path class="st2" d="M22.6,81.4c0,0.9-0.7,1.6-1.6,1.6c-0.9,0-1.6-0.7-1.6-1.6c0-0.9,0.7-1.6,1.6-1.6
		C21.9,79.8,22.6,80.5,22.6,81.4"/>
	<path class="st2" d="M27.2,81.4c0,0.9-0.7,1.6-1.6,1.6c-0.9,0-1.6-0.7-1.6-1.6c0-0.9,0.7-1.6,1.6-1.6
		C26.5,79.8,27.2,80.5,27.2,81.4"/>
	<path class="st2" d="M31.9,81.4c0,0.9-0.7,1.6-1.6,1.6c-0.9,0-1.6-0.7-1.6-1.6c0-0.9,0.7-1.6,1.6-1.6
		C31.1,79.8,31.9,80.5,31.9,81.4"/>
	<path class="st2" d="M36.5,81.4c0,0.9-0.7,1.6-1.6,1.6c-0.9,0-1.6-0.7-1.6-1.6c0-0.9,0.7-1.6,1.6-1.6
		C35.7,79.8,36.5,80.5,36.5,81.4"/>
</g>
<rect x="114.3" y="81.7" class="st0" width="52.5" height="2.1"/>
<rect x="114.3" y="81.7" class="st6" width="7.1" height="2.1"/>
<g>
	<defs>
		<rect id="SVGID_1_" x="88.7" width="160" height="90"/>
	</defs>
	<clipPath id="SVGID_2_">
		<use xlink:href="#SVGID_1_"  style="overflow:visible;"/>
	</clipPath>
	<path class="st7" d="M222.3,77.6c0-14.6,11.8-26.4,26.4-26.4v-6.4c-18.1,0-32.8,14.7-32.8,32.8c0,18.1,14.7,32.8,32.8,32.8V104
		C234.1,104,222.3,92.1,222.3,77.6"/>
	<path class="st8" d="M232.6,77.6c0-8.9,7.2-16.1,16.1-16.1v-3.9c-11,0-20,9-20,20c0,11,9,20,20,20v-3.9
		C239.8,93.7,232.6,86.5,232.6,77.6"/>
</g>
</svg>
