<?xml version="1.0" encoding="utf-8"?>
<!-- Generator: Adobe Illustrator 20.0.0, SVG Export Plug-In . SVG Version: 6.00 Build 0)  -->
<svg version="1.1" id="Layer_1" xmlns="http://www.w3.org/2000/svg" xmlns:xlink="http://www.w3.org/1999/xlink" x="0px" y="0px"
	 viewBox="0 0 700 250" style="enable-background:new 0 0 700 250;" xml:space="preserve">
<style type="text/css">
	.st0{clip-path:url(#SVGID_2_);}
	.st1{opacity:0.5;}
	.st2{fill:#FFFFFF;}
	.st3{fill:none;stroke:#FFFFFF;stroke-width:2.1221;stroke-miterlimit:10;}
	.st4{opacity:0.6;enable-background:new    ;}
	.st5{opacity:0.79;}
	.st6{fill:none;stroke:#FFFFFF;stroke-width:0.5;stroke-miterlimit:10;}
	.st7{fill:none;stroke:#FFFFFF;stroke-width:0.75;stroke-miterlimit:10;}
	.st8{fill:none;stroke:#FFFFFF;stroke-miterlimit:10;}
	.st9{fill:none;stroke:#FFFFFF;stroke-width:1.25;stroke-miterlimit:10;}
	.st10{fill:none;stroke:#FFFFFF;stroke-width:1.5;stroke-miterlimit:10;}
	.st11{fill:none;stroke:#FFFFFF;stroke-width:1.75;stroke-miterlimit:10;}
	.st12{fill:none;stroke:#FFFFFF;stroke-width:2;stroke-miterlimit:10;}
	.st13{fill:none;stroke:#FFFFFF;stroke-width:2.25;stroke-miterlimit:10;}
	.st14{fill:none;stroke:#FFFFFF;stroke-width:2.5;stroke-miterlimit:10;}
	.st15{fill:none;stroke:#FFFFFF;stroke-width:2.75;stroke-miterlimit:10;}
	.st16{fill:none;stroke:#FFFFFF;stroke-width:3;stroke-miterlimit:10;}
	.st17{opacity:0.89;}
	.st18{fill:none;stroke:#FFFFFF;stroke-width:0.8127;stroke-linecap:round;stroke-linejoin:round;stroke-dasharray:0,4.3504;}
	.st19{fill:none;stroke:#FFFFFF;stroke-width:0.9493;stroke-linecap:round;stroke-linejoin:round;stroke-dasharray:0,4.227;}
	.st20{fill:none;stroke:#FFFFFF;stroke-width:1.0859;stroke-linecap:round;stroke-linejoin:round;stroke-dasharray:0,4.0907;}
	.st21{fill:none;stroke:#FFFFFF;stroke-width:1.2225;stroke-linecap:round;stroke-linejoin:round;stroke-dasharray:0,3.9825;}
	.st22{fill:none;stroke:#FFFFFF;stroke-width:1.359;stroke-linecap:round;stroke-linejoin:round;stroke-dasharray:0,3.8595;}
	.st23{fill:none;stroke:#FFFFFF;stroke-width:1.4956;stroke-linecap:round;stroke-linejoin:round;stroke-dasharray:0,3.7651;}
	.st24{fill:none;stroke:#FFFFFF;stroke-width:1.6322;stroke-linecap:round;stroke-linejoin:round;stroke-dasharray:0,3.6526;}
	.st25{fill:none;stroke:#FFFFFF;stroke-width:1.7688;stroke-linecap:round;stroke-linejoin:round;stroke-dasharray:0,3.5163;}
	.st26{opacity:0.77;enable-background:new    ;}
	.st27{clip-path:url(#SVGID_4_);}
	.st28{opacity:0.81;enable-background:new    ;}
	.st29{clip-path:url(#SVGID_6_);}
	.st30{opacity:0.72;}
	.st31{opacity:0.5;fill:none;stroke:#FFFFFF;stroke-width:50;stroke-miterlimit:10;enable-background:new    ;}
	.st32{opacity:0.5;fill:none;stroke:#FFFFFF;stroke-width:30;stroke-miterlimit:10;enable-background:new    ;}
	.st33{opacity:0.5;fill:url(#SVGID_7_);enable-background:new    ;}
	.st34{opacity:0.5;fill:url(#SVGID_8_);enable-background:new    ;}
	.st35{opacity:0.5;fill:url(#SVGID_9_);enable-background:new    ;}
	.st36{opacity:0.5;fill:url(#SVGID_10_);enable-background:new    ;}
	.st37{opacity:0.5;fill:url(#SVGID_11_);enable-background:new    ;}
	.st38{opacity:0.5;fill:url(#SVGID_12_);enable-background:new    ;}
	.st39{opacity:0.49;}
	.st40{fill:none;stroke:#FFFFFF;stroke-width:2;stroke-linecap:round;stroke-linejoin:round;stroke-miterlimit:10;}
</style>
<g>
	<g>
		<defs>
			<rect id="SVGID_1_" y="-216.4" width="699.6" height="466.4"/>
		</defs>
		<clipPath id="SVGID_2_">
			<use xlink:href="#SVGID_1_"  style="overflow:visible;"/>
		</clipPath>
		<g class="st0">
			<g>
				<g class="st1">
					<circle class="st2" cx="593.8" cy="53.6" r="1.7"/>
					<circle class="st2" cx="593.8" cy="67.8" r="1.7"/>
					<circle class="st2" cx="593.8" cy="82.1" r="1.7"/>
					<circle class="st2" cx="593.8" cy="96.4" r="1.7"/>
					<circle class="st2" cx="593.8" cy="110.7" r="1.7"/>
					<circle class="st2" cx="593.8" cy="124.9" r="1.7"/>
					<circle class="st2" cx="593.8" cy="139.2" r="1.7"/>
					<circle class="st2" cx="593.8" cy="153.5" r="1.7"/>
					<circle class="st2" cx="579.6" cy="53.6" r="1.7"/>
					<circle class="st2" cx="579.6" cy="67.8" r="1.7"/>
					<circle class="st2" cx="579.6" cy="82.1" r="1.7"/>
					<circle class="st2" cx="579.6" cy="96.4" r="1.7"/>
					<circle class="st2" cx="579.6" cy="110.7" r="1.7"/>
					<circle class="st2" cx="579.6" cy="124.9" r="1.7"/>
					<circle class="st2" cx="579.6" cy="139.2" r="1.7"/>
					<circle class="st2" cx="579.6" cy="153.5" r="1.7"/>
					<circle class="st2" cx="565.3" cy="53.6" r="1.7"/>
					<circle class="st2" cx="565.3" cy="67.8" r="1.7"/>
					<circle class="st2" cx="565.3" cy="82.1" r="1.7"/>
					<circle class="st2" cx="565.3" cy="96.4" r="1.7"/>
					<circle class="st2" cx="565.3" cy="110.7" r="1.7"/>
					<circle class="st2" cx="565.3" cy="124.9" r="1.7"/>
					<circle class="st2" cx="565.3" cy="139.2" r="1.7"/>
					<circle class="st2" cx="565.3" cy="153.5" r="1.7"/>
					<circle class="st2" cx="551" cy="53.6" r="1.7"/>
					<circle class="st2" cx="551" cy="67.8" r="1.7"/>
					<circle class="st2" cx="551" cy="82.1" r="1.7"/>
					<circle class="st2" cx="551" cy="96.4" r="1.7"/>
					<circle class="st2" cx="551" cy="110.7" r="1.7"/>
					<circle class="st2" cx="551" cy="124.9" r="1.7"/>
					<circle class="st2" cx="551" cy="139.2" r="1.7"/>
					<circle class="st2" cx="551" cy="153.5" r="1.7"/>
					<circle class="st2" cx="536.7" cy="53.6" r="1.7"/>
					<circle class="st2" cx="536.7" cy="67.8" r="1.7"/>
					<circle class="st2" cx="536.7" cy="82.1" r="1.7"/>
					<circle class="st2" cx="536.7" cy="96.4" r="1.7"/>
					<circle class="st2" cx="536.7" cy="110.7" r="1.7"/>
					<circle class="st2" cx="536.7" cy="124.9" r="1.7"/>
					<circle class="st2" cx="536.7" cy="139.2" r="1.7"/>
					<circle class="st2" cx="536.7" cy="153.5" r="1.7"/>
					<circle class="st2" cx="522.5" cy="53.6" r="1.7"/>
					<circle class="st2" cx="522.5" cy="67.8" r="1.7"/>
					<circle class="st2" cx="522.5" cy="82.1" r="1.7"/>
					<circle class="st2" cx="522.5" cy="96.4" r="1.7"/>
					<circle class="st2" cx="522.5" cy="110.7" r="1.7"/>
					<circle class="st2" cx="522.5" cy="124.9" r="1.7"/>
					<circle class="st2" cx="522.5" cy="139.2" r="1.7"/>
					<circle class="st2" cx="522.5" cy="153.5" r="1.7"/>
				</g>
			</g>
			<g>
				<g class="st1">
					<line class="st3" x1="405.8" y1="250" x2="345.7" y2="310.1"/>
					<line class="st3" x1="401.5" y1="245.6" x2="341.3" y2="305.8"/>
					<line class="st3" x1="397.1" y1="241.3" x2="337" y2="301.4"/>
					<line class="st3" x1="392.8" y1="236.9" x2="332.7" y2="297.1"/>
					<line class="st3" x1="388.5" y1="232.6" x2="328.3" y2="292.8"/>
					<line class="st3" x1="384.1" y1="228.3" x2="324" y2="288.4"/>
					<line class="st3" x1="379.8" y1="223.9" x2="319.6" y2="284.1"/>
					<line class="st3" x1="375.4" y1="219.6" x2="315.3" y2="279.7"/>
					<line class="st3" x1="371.1" y1="215.2" x2="310.9" y2="275.4"/>
					<line class="st3" x1="366.7" y1="210.9" x2="306.6" y2="271"/>
					<line class="st3" x1="362.4" y1="206.5" x2="302.3" y2="266.7"/>
					<line class="st3" x1="358.1" y1="202.2" x2="297.9" y2="262.4"/>
					<line class="st3" x1="353.7" y1="197.9" x2="293.6" y2="258"/>
					<line class="st3" x1="349.4" y1="193.5" x2="289.2" y2="253.7"/>
				</g>
			</g>
			<g class="st4">
				<g class="st5">
					<circle class="st6" cx="419.4" cy="4" r="86"/>
					<circle class="st7" cx="419.4" cy="4" r="79.4"/>
					<circle class="st8" cx="419.4" cy="4" r="72.7"/>
					<circle class="st9" cx="419.4" cy="4" r="66"/>
					<circle class="st10" cx="419.4" cy="4" r="59.4"/>
					<circle class="st11" cx="419.4" cy="4" r="52.7"/>
					<circle class="st12" cx="419.4" cy="4" r="46"/>
					<circle class="st13" cx="419.4" cy="4" r="39.4"/>
					<circle class="st14" cx="419.4" cy="4" r="32.7"/>
					<circle class="st15" cx="419.4" cy="4" r="26"/>
					<circle class="st16" cx="419.4" cy="4" r="19.4"/>
				</g>
				<g class="st17">
					<g>
						<circle class="st18" cx="168.3" cy="-34.1" r="75.5"/>
					</g>
					<g>
						<circle class="st19" cx="168.3" cy="-34.1" r="70"/>
					</g>
					<g>
						<circle class="st20" cx="168.3" cy="-34.1" r="64.5"/>
					</g>
					<g>
						<circle class="st21" cx="168.3" cy="-34.1" r="59"/>
					</g>
					<g>
						<circle class="st22" cx="168.3" cy="-34.1" r="53.5"/>
					</g>
					<g>
						<circle class="st23" cx="168.3" cy="-34.1" r="48"/>
					</g>
					<g>
						<circle class="st24" cx="168.3" cy="-34.1" r="42.4"/>
					</g>
					<g>
						<circle class="st25" cx="168.3" cy="-34.1" r="36.9"/>
					</g>
				</g>
				<g>
					<g class="st26">
						<defs>
							<circle id="SVGID_3_" class="st26" cx="298.8" cy="77.6" r="30.1"/>
						</defs>
						<clipPath id="SVGID_4_">
							<use xlink:href="#SVGID_3_"  style="overflow:visible;"/>
						</clipPath>
						<g class="st27">
							<line class="st12" x1="255.4" y1="12.6" x2="125.3" y2="142.7"/>
							<line class="st12" x1="263.5" y1="12.6" x2="133.3" y2="142.7"/>
							<line class="st12" x1="271.5" y1="12.6" x2="141.4" y2="142.7"/>
							<line class="st12" x1="279.5" y1="12.6" x2="149.4" y2="142.7"/>
							<line class="st12" x1="287.6" y1="12.6" x2="157.4" y2="142.7"/>
							<line class="st12" x1="295.6" y1="12.6" x2="165.5" y2="142.7"/>
							<line class="st12" x1="303.6" y1="12.6" x2="173.5" y2="142.7"/>
							<line class="st12" x1="311.7" y1="12.6" x2="181.5" y2="142.7"/>
							<line class="st12" x1="319.7" y1="12.6" x2="189.6" y2="142.7"/>
							<line class="st12" x1="327.7" y1="12.6" x2="197.6" y2="142.7"/>
							<line class="st12" x1="335.8" y1="12.6" x2="205.6" y2="142.7"/>
							<line class="st12" x1="343.8" y1="12.6" x2="213.7" y2="142.7"/>
							<line class="st12" x1="351.8" y1="12.6" x2="221.7" y2="142.7"/>
							<line class="st12" x1="359.9" y1="12.6" x2="229.7" y2="142.7"/>
							<line class="st12" x1="367.9" y1="12.6" x2="237.8" y2="142.7"/>
							<line class="st12" x1="375.9" y1="12.6" x2="245.8" y2="142.7"/>
							<line class="st12" x1="384" y1="12.6" x2="253.8" y2="142.7"/>
							<line class="st12" x1="392" y1="12.6" x2="261.9" y2="142.7"/>
							<line class="st12" x1="400" y1="12.6" x2="269.9" y2="142.7"/>
							<line class="st12" x1="408.1" y1="12.6" x2="277.9" y2="142.7"/>
							<line class="st12" x1="416.1" y1="12.6" x2="286" y2="142.7"/>
							<line class="st12" x1="424.1" y1="12.6" x2="294" y2="142.7"/>
							<line class="st12" x1="432.2" y1="12.6" x2="302" y2="142.7"/>
							<line class="st12" x1="440.2" y1="12.6" x2="310" y2="142.7"/>
							<line class="st12" x1="448.2" y1="12.6" x2="318.1" y2="142.7"/>
							<line class="st12" x1="456.2" y1="12.6" x2="326.1" y2="142.7"/>
							<line class="st12" x1="464.3" y1="12.6" x2="334.1" y2="142.7"/>
							<line class="st12" x1="472.3" y1="12.6" x2="342.2" y2="142.7"/>
						</g>
					</g>
					<g>
						<g class="st28">
							<defs>
								<circle id="SVGID_5_" class="st28" cx="630.1" cy="259.3" r="96.1"/>
							</defs>
							<clipPath id="SVGID_6_">
								<use xlink:href="#SVGID_5_"  style="overflow:visible;"/>
							</clipPath>
							<g class="st29">
								<line class="st12" x1="614.5" y1="103.6" x2="305.7" y2="412.4"/>
								<line class="st12" x1="622.5" y1="103.6" x2="313.6" y2="412.4"/>
								<line class="st12" x1="630.4" y1="103.6" x2="321.5" y2="412.4"/>
								<line class="st12" x1="638.3" y1="103.6" x2="329.5" y2="412.4"/>
								<line class="st12" x1="646.3" y1="103.6" x2="337.4" y2="412.4"/>
								<line class="st12" x1="654.2" y1="103.6" x2="345.3" y2="412.4"/>
								<line class="st12" x1="662.1" y1="103.6" x2="353.3" y2="412.4"/>
								<line class="st12" x1="670" y1="103.6" x2="361.2" y2="412.4"/>
								<line class="st12" x1="678" y1="103.6" x2="369.1" y2="412.4"/>
								<line class="st12" x1="685.9" y1="103.6" x2="377.1" y2="412.4"/>
								<line class="st12" x1="693.8" y1="103.6" x2="385" y2="412.4"/>
								<line class="st12" x1="701.8" y1="103.6" x2="392.9" y2="412.4"/>
								<line class="st12" x1="709.7" y1="103.6" x2="400.9" y2="412.4"/>
								<line class="st12" x1="717.6" y1="103.6" x2="408.8" y2="412.4"/>
								<line class="st12" x1="725.6" y1="103.6" x2="416.7" y2="412.4"/>
								<line class="st12" x1="733.5" y1="103.6" x2="424.7" y2="412.4"/>
								<line class="st12" x1="741.4" y1="103.6" x2="432.6" y2="412.4"/>
								<line class="st12" x1="749.4" y1="103.6" x2="440.5" y2="412.4"/>
								<line class="st12" x1="757.3" y1="103.6" x2="448.5" y2="412.4"/>
								<line class="st12" x1="765.2" y1="103.6" x2="456.4" y2="412.4"/>
								<line class="st12" x1="773.2" y1="103.6" x2="464.3" y2="412.4"/>
								<line class="st12" x1="781.1" y1="103.6" x2="472.3" y2="412.4"/>
								<line class="st12" x1="789" y1="103.6" x2="480.2" y2="412.4"/>
								<line class="st12" x1="797" y1="103.6" x2="488.1" y2="412.4"/>
								<line class="st12" x1="804.9" y1="103.6" x2="496.1" y2="412.4"/>
								<line class="st12" x1="812.8" y1="103.6" x2="504" y2="412.4"/>
								<line class="st12" x1="820.8" y1="103.6" x2="511.9" y2="412.4"/>
								<line class="st12" x1="828.7" y1="103.6" x2="519.9" y2="412.4"/>
								<line class="st12" x1="836.6" y1="103.6" x2="527.8" y2="412.4"/>
								<line class="st12" x1="844.6" y1="103.6" x2="535.7" y2="412.4"/>
								<line class="st12" x1="852.5" y1="103.6" x2="543.7" y2="412.4"/>
								<line class="st12" x1="860.4" y1="103.6" x2="551.6" y2="412.4"/>
								<line class="st12" x1="868.4" y1="103.6" x2="559.5" y2="412.4"/>
								<line class="st12" x1="876.3" y1="103.6" x2="567.4" y2="412.4"/>
								<line class="st12" x1="884.2" y1="103.6" x2="575.4" y2="412.4"/>
								<line class="st12" x1="892.2" y1="103.6" x2="583.3" y2="412.4"/>
								<line class="st12" x1="900.1" y1="103.6" x2="591.2" y2="412.4"/>
								<line class="st12" x1="908" y1="103.6" x2="599.2" y2="412.4"/>
								<line class="st12" x1="916" y1="103.6" x2="607.1" y2="412.4"/>
								<line class="st12" x1="923.9" y1="103.6" x2="615" y2="412.4"/>
								<line class="st12" x1="931.8" y1="103.6" x2="623" y2="412.4"/>
								<line class="st12" x1="939.8" y1="103.6" x2="630.9" y2="412.4"/>
							</g>
						</g>
					</g>
					<g>
						<g class="st30">
							
								<rect x="-118.5" y="-13.5" transform="matrix(0.7071 -0.7071 0.7071 0.7071 -68.044 15.8326)" class="st31" width="207.1" height="207.1"/>
							
								<rect x="596.1" y="-160" transform="matrix(0.7071 -0.7071 0.7071 0.7071 244.8286 478.1854)" class="st31" width="207.1" height="207.1"/>
							
								<rect x="246.3" y="187.8" transform="matrix(0.7071 -0.7071 0.7071 0.7071 -103.5322 332.7077)" class="st32" width="207.1" height="207.1"/>
						</g>
						<g>
							
								<linearGradient id="SVGID_7_" gradientUnits="userSpaceOnUse" x1="2301.9653" y1="1057.1716" x2="2301.9653" y2="1344.2837" gradientTransform="matrix(-0.4778 -0.4778 -0.7154 0.7154 1930.5796 446.9786)">
								<stop  offset="0" style="stop-color:#FFFFFF"/>
								<stop  offset="1" style="stop-color:#000000;stop-opacity:0"/>
							</linearGradient>
							<path class="st33" d="M74.4,103.4L74.4,103.4c13.9,13.9,13.9,36.5,0,50.4l-155,155c-13.9,13.9-36.5,13.9-50.4,0l0,0
								c-13.9-13.9-13.9-36.5,0-50.4l155-155C37.9,89.5,60.4,89.5,74.4,103.4z"/>
							
								<linearGradient id="SVGID_8_" gradientUnits="userSpaceOnUse" x1="1713.9253" y1="883.032" x2="1713.9253" y2="1093.8221" gradientTransform="matrix(-0.7071 -0.7071 -1.0176 1.0176 2347.365 402.5181)">
								<stop  offset="0" style="stop-color:#FFFFFF"/>
								<stop  offset="1" style="stop-color:#000000;stop-opacity:0"/>
							</linearGradient>
							<path class="st34" d="M236.9,89.2L236.9,89.2c15.1,15.1,15.1,39.6,0,54.7L77.1,303.7c-15.1,15.1-39.6,15.1-54.7,0l0,0
								c-15.1-15.1-15.1-39.6,0-54.7L182.1,89.2C197.2,74.1,221.7,74.1,236.9,89.2z"/>
							
								<linearGradient id="SVGID_9_" gradientUnits="userSpaceOnUse" x1="1643.6029" y1="1016.3483" x2="1643.6029" y2="1155.6497" gradientTransform="matrix(-0.7071 -0.7071 -0.7071 0.7071 2111.9514 637.9317)">
								<stop  offset="0" style="stop-color:#FFFFFF"/>
								<stop  offset="1" style="stop-color:#000000;stop-opacity:0"/>
							</linearGradient>
							<path class="st35" d="M231.1,194.4L231.1,194.4c7.2,7.2,7.2,18.9,0,26.1l-72.4,72.4c-7.2,7.2-18.9,7.2-26.1,0l0,0
								c-7.2-7.2-7.2-18.9,0-26.1l72.4-72.4C212.2,187.2,223.9,187.2,231.1,194.4z"/>
							
								<linearGradient id="SVGID_10_" gradientUnits="userSpaceOnUse" x1="183.5427" y1="108.2428" x2="103.1107" y2="27.8107" gradientTransform="matrix(1 0 0 -1 0 252)">
								<stop  offset="0" style="stop-color:#FFFFFF"/>
								<stop  offset="1" style="stop-color:#000000;stop-opacity:0"/>
							</linearGradient>
							<path class="st36" d="M171.7,155.6L171.7,155.6c9.6,9.6,9.6,25.2,0,34.9L27.8,334.4c-9.6,9.6-25.2,9.6-34.9,0l0,0
								c-9.6-9.6-9.6-25.2,0-34.9l143.9-143.9C146.4,146,162,146,171.7,155.6z"/>
							
								<linearGradient id="SVGID_11_" gradientUnits="userSpaceOnUse" x1="350.5004" y1="-256.4928" x2="350.5004" y2="-45.7027" gradientTransform="matrix(0.7071 0.7071 1.0176 -1.0176 557.9682 -507.4459)">
								<stop  offset="0" style="stop-color:#FFFFFF"/>
								<stop  offset="1" style="stop-color:#000000;stop-opacity:0"/>
							</linearGradient>
							<path class="st37" d="M544.8,1.4L544.8,1.4c-15.1-15.1-15.1-39.6,0-54.7l159.8-159.8c15.1-15.1,39.6-15.1,54.7,0l0,0
								c15.1,15.1,15.1,39.6,0,54.7L599.5,1.4C584.4,16.5,559.9,16.5,544.8,1.4z"/>
							
								<linearGradient id="SVGID_12_" gradientUnits="userSpaceOnUse" x1="432.3842" y1="-621.2992" x2="432.3842" y2="-481.9978" gradientTransform="matrix(0.7071 0.7071 0.7071 -0.7071 793.3818 -742.8595)">
								<stop  offset="0" style="stop-color:#FFFFFF"/>
								<stop  offset="1" style="stop-color:#000000;stop-opacity:0"/>
							</linearGradient>
							<path class="st38" d="M659.8,2.2L659.8,2.2c-7.2-7.2-7.2-18.9,0-26.1l72.4-72.4c7.2-7.2,18.9-7.2,26.1,0l0,0
								c7.2,7.2,7.2,18.9,0,26.1L685.8,2.2C678.6,9.4,667,9.4,659.8,2.2z"/>
						</g>
					</g>
					<g class="st39">
						<circle class="st40" cx="410.3" cy="122.8" r="3.8"/>
						<circle class="st40" cx="23.8" cy="58.8" r="3.8"/>
						<g>
							<line class="st40" x1="646.1" y1="119.5" x2="646.1" y2="126.1"/>
							<line class="st40" x1="649.4" y1="122.8" x2="642.7" y2="122.8"/>
						</g>
						<g>
							<line class="st40" x1="176.6" y1="59.2" x2="176.6" y2="65.9"/>
							<line class="st40" x1="179.9" y1="62.5" x2="173.2" y2="62.5"/>
						</g>
						<g>
							<g>
								<line class="st40" x1="516.7" y1="199" x2="516.7" y2="205.7"/>
								<line class="st40" x1="520.1" y1="202.4" x2="513.4" y2="202.4"/>
							</g>
							<g>
								<line class="st40" x1="496.6" y1="199" x2="496.6" y2="205.7"/>
								<line class="st40" x1="499.9" y1="202.4" x2="493.3" y2="202.4"/>
							</g>
							<g>
								<line class="st40" x1="476.5" y1="199" x2="476.5" y2="205.7"/>
								<line class="st40" x1="479.8" y1="202.4" x2="473.2" y2="202.4"/>
							</g>
						</g>
						<polygon class="st40" points="255.7,40 260.8,31 250.5,31 						"/>
						<path class="st40" d="M247.6,175.8c2.3-2.3,6.2,1.7,8.5-0.6c2.3-2.3-1.7-6.2,0.6-8.5c2.3-2.3,6.2,1.7,8.5-0.6
							s-1.7-6.2,0.6-8.5c2.3-2.3,6.2,1.7,8.5-0.6s-1.7-6.2,0.6-8.5c2.3-2.3,6.2,1.7,8.5-0.6"/>
						<path class="st40" d="M444.3,157.3c2.3-2.3,6.2,1.7,8.5-0.6s-1.7-6.2,0.6-8.5c2.3-2.3,6.2,1.7,8.5-0.6s-1.7-6.2,0.6-8.5
							c2.3-2.3,6.2,1.7,8.5-0.6s-1.7-6.2,0.6-8.5c2.3-2.3,6.2,1.7,8.5-0.6"/>
					</g>
				</g>
			</g>
		</g>
	</g>
</g>
</svg>
