<?xml version="1.0" encoding="utf-8"?>
<!-- Generator: Adobe Illustrator 20.0.0, SVG Export Plug-In . SVG Version: 6.00 Build 0)  -->
<svg version="1.1" xmlns="http://www.w3.org/2000/svg" xmlns:xlink="http://www.w3.org/1999/xlink" x="0px" y="0px"
	 viewBox="0 0 300 300" style="enable-background:new 0 0 300 300;" xml:space="preserve">
<style type="text/css">
	.st0{display:none;}
	.st1{fill:url(#SVGID_1_);}
	.st2{fill:#FFFFFF;}
	.st3{fill:#8B95A5;}
	.st4{fill:url(#SVGID_2_);}
	.st5{fill:url(#SVGID_3_);}
	.st6{fill:url(#SVGID_4_);}
	.st7{fill:url(#SVGID_5_);}
	.st8{fill:url(#SVGID_6_);}
	.st9{fill:#1A3D82;}
</style>
<g id="Layer_1" class="st0">
	
		<image style="display:inline;overflow:visible;" width="700" height="700" xlink:href="bg_step3.png"  transform="matrix(0.4286 0 0 0.4286 0 0)">
	</image>
</g>
<g id="Layer_2">
	<g>
		<linearGradient id="SVGID_1_" gradientUnits="userSpaceOnUse" x1="156.2758" y1="83.7201" x2="201.6721" y2="83.7201">
			<stop  offset="0" style="stop-color:#2EDE9A"/>
			<stop  offset="0.9995" style="stop-color:#2EBFD8"/>
		</linearGradient>
		<path class="st1" d="M179,61c-12.5,0-22.7,10.2-22.7,22.7c0,12.5,10.2,22.7,22.7,22.7c12.5,0,22.7-10.2,22.7-22.7
			C201.7,71.2,191.5,61,179,61z"/>
		<g>
			<path class="st2" d="M184.9,95.4l-1.7-5.5h-8.5l-1.7,5.5h-5.3l8.2-23.3h6l8.2,23.3H184.9z M182,85.7c-1.6-5-2.4-7.8-2.6-8.5
				c-0.2-0.7-0.3-1.2-0.4-1.6c-0.3,1.4-1.4,4.7-3,10.1H182z"/>
		</g>
	</g>
	<g>
		<g>
			
				<image style="overflow:visible;opacity:0.2;" width="100" height="85" xlink:href="67ED35E183669F6D.png"  transform="matrix(1 0 0 1 195 78)">
			</image>
			<g>
				<path class="st2" d="M269,140.5h-56.4c-1.7,0-3-1.4-3-3V95.6c0-1.7,1.4-3,3-3H269c1.7,0,3,1.4,3,3v41.9
					C272,139.2,270.7,140.5,269,140.5z"/>
			</g>
		</g>
		<g>
			<g>
				<path class="st3" d="M263.7,134.9h-1.8v-0.6h1.8V134.9z M260,134.9h-1.8v-0.6h1.8V134.9z M256.4,134.9h-1.8v-0.6h1.8V134.9z
					 M252.8,134.9h-1.8v-0.6h1.8V134.9z M249.1,134.9h-1.8v-0.6h1.8V134.9z M245.5,134.9h-1.8v-0.6h1.8V134.9z M241.8,134.9H240
					v-0.6h1.8V134.9z M238.2,134.9h-1.8v-0.6h1.8V134.9z M234.5,134.9h-1.8v-0.6h1.8V134.9z M230.9,134.9h-1.8v-0.6h1.8V134.9z
					 M227.3,134.9h-1.8v-0.6h1.8V134.9z M223.6,134.9h-1.8v-0.6h1.8V134.9z M220,134.9h-1.8v-0.6h1.8V134.9z M265.1,134.7l-0.2-0.6
					c0.5-0.2,1-0.5,1.4-0.9l0.5,0.4C266.2,134,265.7,134.4,265.1,134.7z M216.3,134.6c-0.6-0.3-1.1-0.7-1.5-1.2l0.5-0.4
					c0.3,0.4,0.8,0.8,1.3,1L216.3,134.6z M267.5,131.8l-0.6-0.1c0-0.2,0.1-0.4,0.1-0.7v-1.1h0.6v1.1
					C267.6,131.3,267.6,131.5,267.5,131.8z M214,131.5c0-0.2,0-0.3,0-0.5v-1.3h0.6v1.3c0,0.2,0,0.3,0,0.4L214,131.5z M267.6,128.1
					H267v-1.8h0.6V128.1z M214.6,127.8H214V126h0.6V127.8z M267.6,124.4H267v-1.8h0.6V124.4z M214.6,124.2H214v-1.8h0.6V124.2z
					 M267.6,120.8H267V119h0.6V120.8z M214.6,120.6H214v-1.8h0.6V120.6z M267.6,117.2H267v-1.8h0.6V117.2z M214.6,116.9H214v-1.8
					h0.6V116.9z M267.6,113.5H267v-1.8h0.6V113.5z M214.6,113.3H214v-1.8h0.6V113.3z M267.6,109.9H267V108h0.6V109.9z M214.6,109.6
					H214v-1.8h0.6V109.6z M267.6,106.2H267v-1.8h0.6V106.2z M214.6,106H214v-1.8h0.6V106z M267.6,102.6H267V101c0-0.1,0-0.1,0-0.2
					l0.6,0c0,0.1,0,0.2,0,0.2V102.6z M214.6,102.3H214V101c0-0.2,0-0.3,0-0.5l0.6,0.1c0,0.1,0,0.3,0,0.4V102.3z M266.5,99.2
					c-0.3-0.5-0.7-0.9-1.2-1.1l0.3-0.5c0.6,0.3,1.1,0.8,1.4,1.3L266.5,99.2z M215.2,99l-0.5-0.4c0.4-0.5,0.9-1,1.5-1.2l0.3,0.6
					C216,98.2,215.5,98.6,215.2,99z M263.7,97.7h-1.8v-0.6h1.8V97.7z M260,97.7h-1.8v-0.6h1.8V97.7z M256.4,97.7h-1.8v-0.6h1.8V97.7
					z M252.7,97.7h-1.8v-0.6h1.8V97.7z M249.1,97.7h-1.8v-0.6h1.8V97.7z M245.5,97.7h-1.8v-0.6h1.8V97.7z M241.8,97.7H240v-0.6h1.8
					V97.7z M238.2,97.7h-1.8v-0.6h1.8V97.7z M234.5,97.7h-1.8v-0.6h1.8V97.7z M230.9,97.7h-1.8v-0.6h1.8V97.7z M227.2,97.7h-1.8
					v-0.6h1.8V97.7z M223.6,97.7h-1.8v-0.6h1.8V97.7z M220,97.7h-1.8v-0.6h1.8V97.7z"/>
			</g>
		</g>
		<g>
			<linearGradient id="SVGID_2_" gradientUnits="userSpaceOnUse" x1="225.8565" y1="116.3296" x2="254.5691" y2="116.3296">
				<stop  offset="0" style="stop-color:#62AAF1"/>
				<stop  offset="0.9995" style="stop-color:#5E4BFD"/>
			</linearGradient>
			<path class="st4" d="M240.2,102c-7.9,0-14.4,6.4-14.4,14.4c0,7.9,6.4,14.4,14.4,14.4c7.9,0,14.4-6.4,14.4-14.4
				C254.6,108.4,248.1,102,240.2,102z"/>
			<g>
				<path class="st2" d="M246.2,108.9v9.5c0,1.1-0.2,2-0.7,2.9c-0.5,0.8-1.2,1.4-2.1,1.9c-0.9,0.4-2,0.7-3.3,0.7
					c-1.9,0-3.4-0.5-4.4-1.5c-1-1-1.6-2.3-1.6-4v-9.5h3.1v9c0,1.1,0.2,2,0.7,2.5c0.5,0.5,1.2,0.8,2.3,0.8c1,0,1.8-0.3,2.2-0.8
					c0.5-0.5,0.7-1.4,0.7-2.5v-9H246.2z"/>
			</g>
		</g>
	</g>
	<g>
		<g>
			
				<image style="overflow:visible;opacity:0.2;" width="100" height="85" xlink:href="67ED35E183669F73.png"  transform="matrix(1 0 0 1 195 21)">
			</image>
			<g>
				<path class="st2" d="M269,84h-56.4c-1.7,0-3-1.4-3-3V39c0-1.7,1.4-3,3-3H269c1.7,0,3,1.4,3,3v41.9C272,82.6,270.7,84,269,84z"/>
			</g>
		</g>
		<g>
			<g>
				<path class="st3" d="M263.7,78.3h-1.8v-0.6h1.8V78.3z M260,78.3h-1.8v-0.6h1.8V78.3z M256.4,78.3h-1.8v-0.6h1.8V78.3z
					 M252.8,78.3h-1.8v-0.6h1.8V78.3z M249.1,78.3h-1.8v-0.6h1.8V78.3z M245.5,78.3h-1.8v-0.6h1.8V78.3z M241.8,78.3H240v-0.6h1.8
					V78.3z M238.2,78.3h-1.8v-0.6h1.8V78.3z M234.5,78.3h-1.8v-0.6h1.8V78.3z M230.9,78.3h-1.8v-0.6h1.8V78.3z M227.3,78.3h-1.8
					v-0.6h1.8V78.3z M223.6,78.3h-1.8v-0.6h1.8V78.3z M220,78.3h-1.8v-0.6h1.8V78.3z M265.1,78.1l-0.2-0.6c0.5-0.2,1-0.5,1.4-0.9
					l0.5,0.4C266.2,77.5,265.7,77.9,265.1,78.1z M216.3,78c-0.6-0.3-1.1-0.7-1.5-1.2l0.5-0.4c0.3,0.4,0.8,0.8,1.3,1L216.3,78z
					 M267.5,75.2l-0.6-0.1c0-0.2,0.1-0.4,0.1-0.7v-1.1h0.6v1.1C267.6,74.7,267.6,75,267.5,75.2z M214,74.9c0-0.2,0-0.3,0-0.5v-1.3
					h0.6v1.3c0,0.2,0,0.3,0,0.4L214,74.9z M267.6,71.5H267v-1.8h0.6V71.5z M214.6,71.3H214v-1.8h0.6V71.3z M267.6,67.9H267V66h0.6
					V67.9z M214.6,67.6H214v-1.8h0.6V67.6z M267.6,64.2H267v-1.8h0.6V64.2z M214.6,64H214v-1.8h0.6V64z M267.6,60.6H267v-1.8h0.6
					V60.6z M214.6,60.3H214v-1.8h0.6V60.3z M267.6,56.9H267v-1.8h0.6V56.9z M214.6,56.7H214v-1.8h0.6V56.7z M267.6,53.3H267v-1.8
					h0.6V53.3z M214.6,53H214v-1.8h0.6V53z M267.6,49.7H267v-1.8h0.6V49.7z M214.6,49.4H214v-1.8h0.6V49.4z M267.6,46H267v-1.6
					c0-0.1,0-0.1,0-0.2l0.6,0c0,0.1,0,0.2,0,0.2V46z M214.6,45.8H214v-1.4c0-0.2,0-0.3,0-0.5l0.6,0.1c0,0.1,0,0.3,0,0.4V45.8z
					 M266.5,42.6c-0.3-0.5-0.7-0.9-1.2-1.1l0.3-0.5c0.6,0.3,1.1,0.8,1.4,1.3L266.5,42.6z M215.2,42.5l-0.5-0.4
					c0.4-0.5,0.9-1,1.5-1.2l0.3,0.6C216,41.6,215.5,42,215.2,42.5z M263.7,41.1h-1.8v-0.6h1.8V41.1z M260,41.1h-1.8v-0.6h1.8V41.1z
					 M256.4,41.1h-1.8v-0.6h1.8V41.1z M252.7,41.1h-1.8v-0.6h1.8V41.1z M249.1,41.1h-1.8v-0.6h1.8V41.1z M245.5,41.1h-1.8v-0.6h1.8
					V41.1z M241.8,41.1H240v-0.6h1.8V41.1z M238.2,41.1h-1.8v-0.6h1.8V41.1z M234.5,41.1h-1.8v-0.6h1.8V41.1z M230.9,41.1h-1.8v-0.6
					h1.8V41.1z M227.2,41.1h-1.8v-0.6h1.8V41.1z M223.6,41.1h-1.8v-0.6h1.8V41.1z M220,41.1h-1.8v-0.6h1.8V41.1z"/>
			</g>
		</g>
		<g>
			<linearGradient id="SVGID_3_" gradientUnits="userSpaceOnUse" x1="225.8565" y1="59.7563" x2="254.5691" y2="59.7563">
				<stop  offset="0" style="stop-color:#62AAF1"/>
				<stop  offset="0.9995" style="stop-color:#5E4BFD"/>
			</linearGradient>
			<path class="st5" d="M240.2,45.4c-7.9,0-14.4,6.4-14.4,14.4c0,7.9,6.4,14.4,14.4,14.4c7.9,0,14.4-6.4,14.4-14.4
				C254.6,51.8,248.1,45.4,240.2,45.4z"/>
			<g>
				<path class="st2" d="M246.2,52.3v9.5c0,1.1-0.2,2-0.7,2.9c-0.5,0.8-1.2,1.4-2.1,1.9c-0.9,0.4-2,0.7-3.3,0.7
					c-1.9,0-3.4-0.5-4.4-1.5c-1-1-1.6-2.3-1.6-4v-9.5h3.1v9c0,1.1,0.2,2,0.7,2.5c0.5,0.5,1.2,0.8,2.3,0.8c1,0,1.8-0.3,2.2-0.8
					c0.5-0.5,0.7-1.4,0.7-2.5v-9H246.2z"/>
			</g>
		</g>
	</g>
	<g>
		<linearGradient id="SVGID_4_" gradientUnits="userSpaceOnUse" x1="156.2758" y1="207.2196" x2="201.6721" y2="207.2196">
			<stop  offset="0" style="stop-color:#2EDE9A"/>
			<stop  offset="0.9995" style="stop-color:#2EBFD8"/>
		</linearGradient>
		<path class="st6" d="M179,184.5c-12.5,0-22.7,10.2-22.7,22.7c0,12.5,10.2,22.7,22.7,22.7c12.5,0,22.7-10.2,22.7-22.7
			C201.7,194.7,191.5,184.5,179,184.5z"/>
		<g>
			<path class="st2" d="M184.9,218.9l-1.7-5.5h-8.5l-1.7,5.5h-5.3l8.2-23.3h6l8.2,23.3H184.9z M182,209.2c-1.6-5-2.4-7.8-2.6-8.5
				c-0.2-0.7-0.3-1.2-0.4-1.6c-0.3,1.4-1.4,4.7-3,10.1H182z"/>
		</g>
	</g>
	<g>
		<g>
			
				<image style="overflow:visible;opacity:0.2;" width="100" height="85" xlink:href="67ED35E183669F75.png"  transform="matrix(1 0 0 1 195 202)">
			</image>
			<g>
				<path class="st2" d="M269,264h-56.4c-1.7,0-3-1.4-3-3v-41.9c0-1.7,1.4-3,3-3H269c1.7,0,3,1.4,3,3V261
					C272,262.7,270.7,264,269,264z"/>
			</g>
		</g>
		<g>
			<g>
				<path class="st3" d="M263.7,258.4h-1.8v-0.6h1.8V258.4z M260,258.4h-1.8v-0.6h1.8V258.4z M256.4,258.4h-1.8v-0.6h1.8V258.4z
					 M252.8,258.4h-1.8v-0.6h1.8V258.4z M249.1,258.4h-1.8v-0.6h1.8V258.4z M245.5,258.4h-1.8v-0.6h1.8V258.4z M241.8,258.4H240
					v-0.6h1.8V258.4z M238.2,258.4h-1.8v-0.6h1.8V258.4z M234.5,258.4h-1.8v-0.6h1.8V258.4z M230.9,258.4h-1.8v-0.6h1.8V258.4z
					 M227.3,258.4h-1.8v-0.6h1.8V258.4z M223.6,258.4h-1.8v-0.6h1.8V258.4z M220,258.4h-1.8v-0.6h1.8V258.4z M265.1,258.2l-0.2-0.6
					c0.5-0.2,1-0.5,1.4-0.9l0.5,0.4C266.2,257.5,265.7,257.9,265.1,258.2z M216.3,258.1c-0.6-0.3-1.1-0.7-1.5-1.2l0.5-0.4
					c0.3,0.4,0.8,0.8,1.3,1L216.3,258.1z M267.5,255.3l-0.6-0.1c0-0.2,0.1-0.4,0.1-0.7v-1.1h0.6v1.1
					C267.6,254.8,267.6,255,267.5,255.3z M214,255c0-0.2,0-0.3,0-0.5v-1.3h0.6v1.3c0,0.2,0,0.3,0,0.4L214,255z M267.6,251.6H267
					v-1.8h0.6V251.6z M214.6,251.3H214v-1.8h0.6V251.3z M267.6,247.9H267v-1.8h0.6V247.9z M214.6,247.7H214v-1.8h0.6V247.7z
					 M267.6,244.3H267v-1.8h0.6V244.3z M214.6,244H214v-1.8h0.6V244z M267.6,240.7H267v-1.8h0.6V240.7z M214.6,240.4H214v-1.8h0.6
					V240.4z M267.6,237H267v-1.8h0.6V237z M214.6,236.8H214v-1.8h0.6V236.8z M267.6,233.4H267v-1.8h0.6V233.4z M214.6,233.1H214
					v-1.8h0.6V233.1z M267.6,229.7H267v-1.8h0.6V229.7z M214.6,229.5H214v-1.8h0.6V229.5z M267.6,226.1H267v-1.6c0-0.1,0-0.1,0-0.2
					l0.6,0c0,0.1,0,0.2,0,0.2V226.1z M214.6,225.8H214v-1.4c0-0.2,0-0.3,0-0.5l0.6,0.1c0,0.1,0,0.3,0,0.4V225.8z M266.5,222.7
					c-0.3-0.5-0.7-0.9-1.2-1.1l0.3-0.5c0.6,0.3,1.1,0.8,1.4,1.3L266.5,222.7z M215.2,222.5l-0.5-0.4c0.4-0.5,0.9-1,1.5-1.2l0.3,0.6
					C216,221.7,215.5,222.1,215.2,222.5z M263.7,221.2h-1.8v-0.6h1.8V221.2z M260,221.2h-1.8v-0.6h1.8V221.2z M256.4,221.2h-1.8
					v-0.6h1.8V221.2z M252.7,221.2h-1.8v-0.6h1.8V221.2z M249.1,221.2h-1.8v-0.6h1.8V221.2z M245.5,221.2h-1.8v-0.6h1.8V221.2z
					 M241.8,221.2H240v-0.6h1.8V221.2z M238.2,221.2h-1.8v-0.6h1.8V221.2z M234.5,221.2h-1.8v-0.6h1.8V221.2z M230.9,221.2h-1.8
					v-0.6h1.8V221.2z M227.2,221.2h-1.8v-0.6h1.8V221.2z M223.6,221.2h-1.8v-0.6h1.8V221.2z M220,221.2h-1.8v-0.6h1.8V221.2z"/>
			</g>
		</g>
		<g>
			<linearGradient id="SVGID_5_" gradientUnits="userSpaceOnUse" x1="225.8565" y1="239.8291" x2="254.5691" y2="239.8291">
				<stop  offset="0" style="stop-color:#62AAF1"/>
				<stop  offset="0.9995" style="stop-color:#5E4BFD"/>
			</linearGradient>
			<path class="st7" d="M240.2,225.5c-7.9,0-14.4,6.4-14.4,14.4c0,7.9,6.4,14.4,14.4,14.4c7.9,0,14.4-6.4,14.4-14.4
				C254.6,231.9,248.1,225.5,240.2,225.5z"/>
			<g>
				<path class="st2" d="M246.2,232.4v9.5c0,1.1-0.2,2-0.7,2.9c-0.5,0.8-1.2,1.4-2.1,1.9c-0.9,0.4-2,0.7-3.3,0.7
					c-1.9,0-3.4-0.5-4.4-1.5c-1-1-1.6-2.3-1.6-4v-9.5h3.1v9c0,1.1,0.2,2,0.7,2.5c0.5,0.5,1.2,0.8,2.3,0.8c1,0,1.8-0.3,2.2-0.8
					c0.5-0.5,0.7-1.4,0.7-2.5v-9H246.2z"/>
			</g>
		</g>
	</g>
	<g>
		<g>
			
				<image style="overflow:visible;opacity:0.2;" width="100" height="85" xlink:href="67ED35E183669F77.png"  transform="matrix(1 0 0 1 195 145)">
			</image>
			<g>
				<path class="st2" d="M269,207.5h-56.4c-1.7,0-3-1.4-3-3v-41.9c0-1.7,1.4-3,3-3H269c1.7,0,3,1.4,3,3v41.9
					C272,206.1,270.7,207.5,269,207.5z"/>
			</g>
		</g>
		<g>
			<g>
				<path class="st3" d="M263.7,201.8h-1.8v-0.6h1.8V201.8z M260,201.8h-1.8v-0.6h1.8V201.8z M256.4,201.8h-1.8v-0.6h1.8V201.8z
					 M252.8,201.8h-1.8v-0.6h1.8V201.8z M249.1,201.8h-1.8v-0.6h1.8V201.8z M245.5,201.8h-1.8v-0.6h1.8V201.8z M241.8,201.8H240
					v-0.6h1.8V201.8z M238.2,201.8h-1.8v-0.6h1.8V201.8z M234.5,201.8h-1.8v-0.6h1.8V201.8z M230.9,201.8h-1.8v-0.6h1.8V201.8z
					 M227.3,201.8h-1.8v-0.6h1.8V201.8z M223.6,201.8h-1.8v-0.6h1.8V201.8z M220,201.8h-1.8v-0.6h1.8V201.8z M265.1,201.6l-0.2-0.6
					c0.5-0.2,1-0.5,1.4-0.9l0.5,0.4C266.2,201,265.7,201.4,265.1,201.6z M216.3,201.5c-0.6-0.3-1.1-0.7-1.5-1.2l0.5-0.4
					c0.3,0.4,0.8,0.8,1.3,1L216.3,201.5z M267.5,198.7l-0.6-0.1c0-0.2,0.1-0.4,0.1-0.7v-1.1h0.6v1.1
					C267.6,198.2,267.6,198.5,267.5,198.7z M214,198.4c0-0.2,0-0.3,0-0.5v-1.3h0.6v1.3c0,0.2,0,0.3,0,0.4L214,198.4z M267.6,195H267
					v-1.8h0.6V195z M214.6,194.8H214v-1.8h0.6V194.8z M267.6,191.4H267v-1.8h0.6V191.4z M214.6,191.1H214v-1.8h0.6V191.1z
					 M267.6,187.7H267v-1.8h0.6V187.7z M214.6,187.5H214v-1.8h0.6V187.5z M267.6,184.1H267v-1.8h0.6V184.1z M214.6,183.8H214V182
					h0.6V183.8z M267.6,180.4H267v-1.8h0.6V180.4z M214.6,180.2H214v-1.8h0.6V180.2z M267.6,176.8H267V175h0.6V176.8z M214.6,176.5
					H214v-1.8h0.6V176.5z M267.6,173.2H267v-1.8h0.6V173.2z M214.6,172.9H214v-1.8h0.6V172.9z M267.6,169.5H267v-1.6
					c0-0.1,0-0.1,0-0.2l0.6,0c0,0.1,0,0.2,0,0.2V169.5z M214.6,169.3H214v-1.4c0-0.2,0-0.3,0-0.5l0.6,0.1c0,0.1,0,0.3,0,0.4V169.3z
					 M266.5,166.1c-0.3-0.5-0.7-0.9-1.2-1.1l0.3-0.5c0.6,0.3,1.1,0.8,1.4,1.3L266.5,166.1z M215.2,165.9l-0.5-0.4
					c0.4-0.5,0.9-1,1.5-1.2l0.3,0.6C216,165.1,215.5,165.5,215.2,165.9z M263.7,164.6h-1.8V164h1.8V164.6z M260,164.6h-1.8V164h1.8
					V164.6z M256.4,164.6h-1.8V164h1.8V164.6z M252.7,164.6h-1.8V164h1.8V164.6z M249.1,164.6h-1.8V164h1.8V164.6z M245.5,164.6
					h-1.8V164h1.8V164.6z M241.8,164.6H240V164h1.8V164.6z M238.2,164.6h-1.8V164h1.8V164.6z M234.5,164.6h-1.8V164h1.8V164.6z
					 M230.9,164.6h-1.8V164h1.8V164.6z M227.2,164.6h-1.8V164h1.8V164.6z M223.6,164.6h-1.8V164h1.8V164.6z M220,164.6h-1.8V164h1.8
					V164.6z"/>
			</g>
		</g>
		<g>
			<linearGradient id="SVGID_6_" gradientUnits="userSpaceOnUse" x1="225.8565" y1="183.2558" x2="254.5691" y2="183.2558">
				<stop  offset="0" style="stop-color:#62AAF1"/>
				<stop  offset="0.9995" style="stop-color:#5E4BFD"/>
			</linearGradient>
			<path class="st8" d="M240.2,168.9c-7.9,0-14.4,6.4-14.4,14.4c0,7.9,6.4,14.4,14.4,14.4c7.9,0,14.4-6.4,14.4-14.4
				C254.6,175.3,248.1,168.9,240.2,168.9z"/>
			<g>
				<path class="st2" d="M246.2,175.8v9.5c0,1.1-0.2,2-0.7,2.9c-0.5,0.8-1.2,1.4-2.1,1.9c-0.9,0.4-2,0.7-3.3,0.7
					c-1.9,0-3.4-0.5-4.4-1.5c-1-1-1.6-2.3-1.6-4v-9.5h3.1v9c0,1.1,0.2,2,0.7,2.5c0.5,0.5,1.2,0.8,2.3,0.8c1,0,1.8-0.3,2.2-0.8
					c0.5-0.5,0.7-1.4,0.7-2.5v-9H246.2z"/>
			</g>
		</g>
	</g>
	<g>
		<path class="st9" d="M119.5,167.4h-7.8V146l0.1-3.5l0.1-3.8c-1.3,1.3-2.2,2.2-2.7,2.6l-4.3,3.4l-3.8-4.7l11.9-9.5h6.4V167.4z"/>
	</g>
</g>
</svg>
