<?xml version="1.0" encoding="utf-8"?>
<!-- Generator: Adobe Illustrator 20.0.0, SVG Export Plug-In . SVG Version: 6.00 Build 0)  -->
<svg version="1.1" id="Layer_1" xmlns="http://www.w3.org/2000/svg" xmlns:xlink="http://www.w3.org/1999/xlink" x="0px" y="0px"
	 viewBox="0 0 67 60" style="enable-background:new 0 0 67 60;" xml:space="preserve">
<style type="text/css">
	.st0{fill:#8B95A5;}
	.st1{fill:#BFCDE2;}
	.st2{fill:#1A3D82;}
</style>
<g>
	<g>
		<path class="st0" d="M50.7,44.2h-1.3v-0.4h1.3V44.2z M48.1,44.2h-1.3v-0.4h1.3V44.2z M45.4,44.2H44v-0.4h1.3V44.2z M42.7,44.2
			h-1.3v-0.4h1.3V44.2z M40,44.2h-1.3v-0.4H40V44.2z M37.4,44.2H36v-0.4h1.3V44.2z M34.7,44.2h-1.3v-0.4h1.3V44.2z M32,44.2h-1.3
			v-0.4H32V44.2z M29.4,44.2H28v-0.4h1.3V44.2z M26.7,44.2h-1.3v-0.4h1.3V44.2z M24,44.2h-1.3v-0.4H24V44.2z M21.3,44.2H20v-0.4h1.3
			V44.2z M18.7,44.2h-1.3v-0.4h1.3V44.2z M16,44.2c-0.5-0.1-1-0.4-1.2-0.8l0.4-0.2c0.2,0.3,0.5,0.5,0.9,0.6L16,44.2z M51.4,44.1
			l-0.2-0.4c0.4-0.1,0.6-0.4,0.8-0.7l0.4,0.2C52.2,43.6,51.8,43.9,51.4,44.1z M15,42.1h-0.5v-1.2H15V42.1z M52.5,41.9H52v-1.2h0.5
			V41.9z M15,39.7l-0.5,0c0.1-0.5,0.3-0.9,0.8-1.2l0.3,0.4C15.2,39.1,15,39.4,15,39.7z M52,39.5c-0.1-0.3-0.4-0.6-0.7-0.8l0.2-0.4
			c0.5,0.2,0.8,0.6,1,1L52,39.5z M50.1,38.6h-1.3v-0.4h1.3V38.6z M47.4,38.6H46v-0.4h1.3V38.6z M44.7,38.6h-1.3v-0.4h1.3V38.6z
			 M42,38.6h-1.3v-0.4H42V38.6z M39.4,38.6H38v-0.4h1.3V38.6z M36.7,38.6h-1.3v-0.4h1.3V38.6z M34,38.6h-1.3v-0.4H34V38.6z
			 M31.4,38.6H30v-0.4h1.3V38.6z M28.7,38.6h-1.3v-0.4h1.3V38.6z M26,38.6h-1.3v-0.4H26V38.6z M23.3,38.6H22v-0.4h1.3V38.6z
			 M20.7,38.6h-1.3v-0.4h1.3V38.6z M18,38.6h-1.3v-0.4H18V38.6z"/>
	</g>
	<g>
		<g>
			<path class="st0" d="M49.7,35.7h-1.3v-0.3h1.3V35.7z M47.1,35.7h-1.3v-0.3h1.3V35.7z M44.6,35.7h-1.3v-0.3h1.3V35.7z M42,35.7
				h-1.3v-0.3H42V35.7z M39.4,35.7h-1.3v-0.3h1.3V35.7z M36.8,35.7h-1.3v-0.3h1.3V35.7z M34.2,35.7H33v-0.3h1.3V35.7z M31.7,35.7
				h-1.3v-0.3h1.3V35.7z M29.1,35.7h-1.3v-0.3h1.3V35.7z M26.5,35.7h-1.3v-0.3h1.3V35.7z M23.9,35.7h-1.3v-0.3h1.3V35.7z M21.3,35.7
				h-1.3v-0.3h1.3V35.7z M18.8,35.7h-1.3v-0.3h1.3V35.7z M50.7,35.6l-0.2-0.3c0.4-0.1,0.7-0.3,1-0.5l0.3,0.2
				C51.5,35.3,51.1,35.5,50.7,35.6z M16.1,35.6c-0.4-0.1-0.8-0.4-1.1-0.6l0.3-0.2c0.2,0.2,0.6,0.4,0.9,0.5L16.1,35.6z M52.4,34.1
				L52,34c0-0.1,0-0.2,0-0.4v-0.6h0.4v0.6C52.5,33.8,52.5,34,52.4,34.1z M14.5,33.9c0-0.1,0-0.2,0-0.3V33h0.4v0.7c0,0.1,0,0.2,0,0.2
				L14.5,33.9z M52.5,32.1h-0.4v-1h0.4V32.1z M14.9,32h-0.4v-1h0.4V32z M52.5,30.2h-0.4v-1h0.4V30.2z M14.9,30.1h-0.4v-1h0.4V30.1z
				 M52.5,28.3h-0.4v-1h0.4V28.3z M14.9,28.2h-0.4v-1h0.4V28.2z M52.5,26.4h-0.4v-1h0.4V26.4z M14.9,26.2h-0.4v-1h0.4V26.2z
				 M52.5,24.5h-0.4v-1h0.4V24.5z M14.9,24.3h-0.4v-1h0.4V24.3z M52.5,22.5h-0.4v-1h0.4V22.5z M14.9,22.4h-0.4v-1h0.4V22.4z
				 M52.5,20.6h-0.4v-1h0.4V20.6z M14.9,20.5h-0.4v-1h0.4V20.5z M52.5,18.7h-0.4v-0.8c0,0,0-0.1,0-0.1l0.4,0c0,0,0,0.1,0,0.1V18.7z
				 M14.9,18.6h-0.4v-0.7c0-0.1,0-0.2,0-0.3l0.4,0c0,0.1,0,0.1,0,0.2V18.6z M51.7,16.9c-0.2-0.2-0.5-0.5-0.9-0.6l0.2-0.3
				c0.4,0.2,0.8,0.4,1,0.7L51.7,16.9z M15.4,16.8L15,16.6c0.3-0.3,0.6-0.5,1.1-0.7l0.2,0.3C15.9,16.4,15.6,16.6,15.4,16.8z
				 M49.7,16.1h-1.3v-0.3h1.3V16.1z M47.1,16.1h-1.3v-0.3h1.3V16.1z M44.6,16.1h-1.3v-0.3h1.3V16.1z M42,16.1h-1.3v-0.3H42V16.1z
				 M39.4,16.1h-1.3v-0.3h1.3V16.1z M36.8,16.1h-1.3v-0.3h1.3V16.1z M34.2,16.1h-1.3v-0.3h1.3V16.1z M31.7,16.1h-1.3v-0.3h1.3V16.1z
				 M29.1,16.1h-1.3v-0.3h1.3V16.1z M26.5,16.1h-1.3v-0.3h1.3V16.1z M23.9,16.1h-1.3v-0.3h1.3V16.1z M21.3,16.1H20v-0.3h1.3V16.1z
				 M18.7,16.1h-1.3v-0.3h1.3V16.1z"/>
		</g>
	</g>
	<path class="st1" d="M48,32H19c-0.5,0-0.8-0.4-0.8-0.8v0c0-0.5,0.4-0.8,0.8-0.8h29c0.5,0,0.8,0.4,0.8,0.8v0
		C48.8,31.7,48.5,32,48,32z"/>
	<path class="st1" d="M48,26.9H19c-0.5,0-0.8-0.4-0.8-0.8v0c0-0.5,0.4-0.8,0.8-0.8h29c0.5,0,0.8,0.4,0.8,0.8v0
		C48.8,26.6,48.5,26.9,48,26.9z"/>
	<path class="st2" d="M48.1,21.2h-29c-0.5,0-0.8-0.4-0.8-0.8v0c0-0.5,0.4-0.8,0.8-0.8h29c0.5,0,0.8,0.4,0.8,0.8v0
		C48.9,20.8,48.6,21.2,48.1,21.2z"/>
	<path class="st2" d="M39.7,42.3H27.3c-0.6,0-1.2-0.5-1.2-1.2v0c0-0.6,0.5-1.2,1.2-1.2h12.3c0.6,0,1.2,0.5,1.2,1.2v0
		C40.8,41.8,40.3,42.3,39.7,42.3z"/>
</g>
</svg>
