<?xml version="1.0" encoding="utf-8"?>
<!-- Generator: Adobe Illustrator 20.0.0, SVG Export Plug-In . SVG Version: 6.00 Build 0)  -->
<svg version="1.1" id="Layer_1" xmlns="http://www.w3.org/2000/svg" xmlns:xlink="http://www.w3.org/1999/xlink" x="0px" y="0px"
	 viewBox="0 0 50 50" style="enable-background:new 0 0 50 50;" xml:space="preserve">
<style type="text/css">
	.st0{fill:#1A3D82;}
</style>
<g>
	<path class="st0" d="M40.1,12.4H9.9c-0.9,0-1.6-0.7-1.6-1.6c0-0.9,0.7-1.6,1.6-1.6h30.3c0.9,0,1.6,0.7,1.6,1.6
		C41.8,11.6,41,12.4,40.1,12.4z"/>
</g>
<g>
	<path class="st0" d="M31.1,44.8H19.6c-4.1,0-7.2-4.4-7.4-8.3l-1.3-25.7l3.2-0.2l1.3,25.7c0.1,2.6,2.2,5.2,4.2,5.2h11.5
		c2,0,4-2.6,4.2-5.2l1.3-25.4l3.2,0.2l-1.3,25.4C38.3,40.4,35.2,44.8,31.1,44.8z"/>
</g>
<g>
	<path class="st0" d="M21.8,36.1c-0.9,0-1.6-0.7-1.6-1.6v-13c0-0.9,0.7-1.6,1.6-1.6s1.6,0.7,1.6,1.6v13
		C23.4,35.4,22.7,36.1,21.8,36.1z"/>
</g>
<g>
	<path class="st0" d="M28.2,36.1c-0.9,0-1.6-0.7-1.6-1.6v-13c0-0.9,0.7-1.6,1.6-1.6s1.6,0.7,1.6,1.6v13
		C29.9,35.4,29.1,36.1,28.2,36.1z"/>
</g>
<g>
	<path class="st0" d="M30.4,10.2c-0.9,0-1.6-0.7-1.6-1.6V7h-7.6v1.6c0,0.9-0.7,1.6-1.6,1.6c-0.9,0-1.6-0.7-1.6-1.6V5.3
		c0-0.9,0.7-1.6,1.6-1.6h10.8c0.9,0,1.6,0.7,1.6,1.6v3.2C32,9.5,31.3,10.2,30.4,10.2z"/>
</g>
</svg>
