<?xml version="1.0" encoding="utf-8"?>
<!-- Generator: Adobe Illustrator 20.0.0, SVG Export Plug-In . SVG Version: 6.00 Build 0)  -->
<svg version="1.1" id="Layer_1" xmlns="http://www.w3.org/2000/svg" xmlns:xlink="http://www.w3.org/1999/xlink" x="0px" y="0px"
	 viewBox="0 0 100 100" style="enable-background:new 0 0 100 100;" xml:space="preserve">
<style type="text/css">
	.st0{fill:#FFFFFF;}
</style>
<g>
	<path class="st0" d="M50,66.5L50,66.5C50,66.5,50,66.5,50,66.5c10.5,0,19-8.5,19-19V28.2c0-5.1-2-9.9-5.6-13.4
		c-3.6-3.6-8.4-5.6-13.4-5.6c0,0,0,0,0,0c-5.1,0-9.8,2-13.4,5.6C33,18.4,31,23.1,31,28.2v19.2c0,5.1,2,9.9,5.5,13.5
		C40.1,64.5,44.9,66.5,50,66.5z M37.2,28.2c0-7.1,5.8-12.8,12.8-12.8h0c3.4,0,6.7,1.3,9.1,3.8c2.4,2.4,3.8,5.7,3.8,9.1v19.3
		c0,7.1-5.8,12.8-12.8,12.8l0,3.1l0-3.1c-3.4,0-6.7-1.4-9.1-3.8c-2.4-2.4-3.8-5.7-3.7-9.1V28.2z"/>
	<path class="st0" d="M80.3,50.6c0-1.7-1.4-3.1-3.1-3.1c-1.8-0.1-3.1,1.4-3.1,3.1c0,11.3-10.8,20.6-24.1,20.6
		c-6.5,0-12.6-2.2-17.2-6.2c-4.4-3.9-6.9-9-6.9-14.4v-0.2c0-1.7-1.4-3-3.1-3h0c-1.7,0-3.1,1.5-3.1,3.2c0,7.2,3.2,14,9,19.1
		c5,4.3,11.3,7,18.2,7.6v7.5h-4.2c-1.7,0-3.1,1.4-3.1,3.1c0,1.7,1.4,3.1,3.1,3.1h14.7c1.7,0,3.1-1.4,3.1-3.1c0-1.7-1.4-3.1-3.1-3.1
		h-4.2v-7.5C68.3,75.8,80.2,64.4,80.3,50.6z"/>
</g>
</svg>
