<?xml version="1.0" encoding="utf-8"?>
<!-- Generator: Adobe Illustrator 20.0.0, SVG Export Plug-In . SVG Version: 6.00 Build 0)  -->
<svg version="1.1" id="Layer_1" xmlns="http://www.w3.org/2000/svg" xmlns:xlink="http://www.w3.org/1999/xlink" x="0px" y="0px"
	 viewBox="0 0 100 100" style="enable-background:new 0 0 100 100;" xml:space="preserve">
<style type="text/css">
	.st0{fill:#1A3D82;}
	.st1{fill-rule:evenodd;clip-rule:evenodd;fill:#1A3D82;}
</style>
<g>
	<path class="st0" d="M26.1,66.1H11.5c-1.7,0-3-1.4-3-3V14.6c0-1.7,1.4-3,3-3h34.2c1.7,0,3,1.4,3,3v15.1c0,1.7-1.4,3-3,3s-3-1.4-3-3
		V17.6H14.5V60h11.5c1.7,0,3,1.4,3,3S27.8,66.1,26.1,66.1z"/>
</g>
<g>
	<path class="st0" d="M88.5,66.1h-5.9c-1.7,0-3-1.4-3-3s1.4-3,3-3h2.9V17.6H57.3v10.2c0,1.7-1.4,3-3,3s-3-1.4-3-3V14.6
		c0-1.7,1.4-3,3-3h34.2c1.7,0,3,1.4,3,3v48.4C91.5,64.7,90.1,66.1,88.5,66.1z"/>
</g>
<g>
	<path class="st0" d="M69.5,89.7H27.7c-1.7,0-3-1.4-3-3V30.3c0-1.7,1.4-3,3-3h41.9c1.7,0,3,1.4,3,3v23.9c0,1.7-1.4,3-3,3
		c-1.7,0-3-1.4-3-3V33.4H30.7v50.3h35.8v-8.7c0-1.7,1.4-3,3-3c1.7,0,3,1.4,3,3v11.7C72.5,88.3,71.2,89.7,69.5,89.7z"/>
</g>
<g>
	<path class="st0" d="M60,49.4H37.1c-1.7,0-3-1.4-3-3s1.4-3,3-3H60c1.7,0,3,1.4,3,3S61.7,49.4,60,49.4z"/>
</g>
<g>
	<path class="st0" d="M53.8,64.3H37.1c-1.7,0-3-1.4-3-3s1.4-3,3-3h16.7c1.7,0,3,1.4,3,3S55.5,64.3,53.8,64.3z"/>
</g>
<g>
	<g>
		<path class="st1" d="M85.1,56.2l-11-6.8c-0.6-0.3-1.3-0.4-1.9,0L61.1,56c-0.5,0.3-0.9,0.9-0.9,1.5v13.3c0,0.6,0.3,1.2,0.9,1.5
			l11.1,6.3c0.6,0.3,1.2,0.3,1.8,0L85,72.3c0.5-0.3,0.9-0.9,0.9-1.5v-13C85.9,57.1,85.6,56.5,85.1,56.2z M78.1,65.2h-3.8v3.8
			c0,0.6-0.5,1.2-1.2,1.2s-1.2-0.5-1.2-1.2v-3.8h-3.8c-0.6,0-1.2-0.5-1.2-1.2s0.5-1.2,1.2-1.2h3.8v-3.8c0-0.6,0.5-1.2,1.2-1.2
			s1.2,0.5,1.2,1.2v3.8h3.8c0.6,0,1.2,0.5,1.2,1.2S78.7,65.2,78.1,65.2z"/>
	</g>
</g>
</svg>
