<?xml version="1.0" encoding="utf-8"?>
<!-- Generator: Adobe Illustrator 20.0.0, SVG Export Plug-In . SVG Version: 6.00 Build 0)  -->
<svg version="1.1" id="Layer_1" xmlns="http://www.w3.org/2000/svg" xmlns:xlink="http://www.w3.org/1999/xlink" x="0px" y="0px"
	 viewBox="0 0 100 100" style="enable-background:new 0 0 100 100;" xml:space="preserve">
<style type="text/css">
	.st0{fill:#FFFFFF;}
	.st1{fill-rule:evenodd;clip-rule:evenodd;fill:#FFFFFF;}
</style>
<g>
	<path class="st0" d="M22.5,68.4H5.8c-1.9,0-3.5-1.6-3.5-3.5V9.3c0-1.9,1.6-3.5,3.5-3.5h39.3c1.9,0,3.5,1.6,3.5,3.5v17.4
		c0,1.9-1.6,3.5-3.5,3.5s-3.5-1.6-3.5-3.5V12.7H9.3v48.7h13.3c1.9,0,3.5,1.6,3.5,3.5C26,66.8,24.4,68.4,22.5,68.4z"/>
</g>
<g>
	<path class="st0" d="M94.2,68.4h-6.8c-1.9,0-3.5-1.6-3.5-3.5c0-1.9,1.6-3.5,3.5-3.5h3.3V12.7H58.4v11.7c0,1.9-1.6,3.5-3.5,3.5
		s-3.5-1.6-3.5-3.5V9.3c0-1.9,1.6-3.5,3.5-3.5h39.3c1.9,0,3.5,1.6,3.5,3.5v55.6C97.7,66.8,96.1,68.4,94.2,68.4z"/>
</g>
<g>
	<path class="st0" d="M72.4,95.5H24.3c-1.9,0-3.5-1.6-3.5-3.5V27.3c0-1.9,1.6-3.5,3.5-3.5h48.1c1.9,0,3.5,1.6,3.5,3.5v27.4
		c0,1.9-1.6,3.5-3.5,3.5S69,56.7,69,54.8v-24H27.8v57.7H69v-10c0-1.9,1.6-3.5,3.5-3.5s3.5,1.6,3.5,3.5V92
		C75.9,93.9,74.3,95.5,72.4,95.5z"/>
</g>
<g>
	<path class="st0" d="M61.5,49.2H35.2c-1.9,0-3.5-1.6-3.5-3.5s1.6-3.5,3.5-3.5h26.3c1.9,0,3.5,1.6,3.5,3.5S63.4,49.2,61.5,49.2z"/>
</g>
<g>
	<path class="st0" d="M54.4,66.3H35.2c-1.9,0-3.5-1.6-3.5-3.5s1.6-3.5,3.5-3.5h19.1c1.9,0,3.5,1.6,3.5,3.5S56.3,66.3,54.4,66.3z"/>
</g>
<g>
	<g>
		<path class="st1" d="M90.3,57l-12.7-7.8c-0.6-0.4-1.5-0.4-2.1,0l-12.8,7.6c-0.6,0.4-1,1-1,1.8v15.3c0,0.7,0.4,1.4,1,1.8L75.5,83
			c0.6,0.4,1.4,0.4,2.1,0l12.7-7.5c0.6-0.4,1-1,1-1.8V58.8C91.3,58.1,90.9,57.4,90.3,57z M82.2,67.4h-4.4v4.4c0,0.7-0.6,1.3-1.3,1.3
			s-1.3-0.6-1.3-1.3v-4.4h-4.4c-0.7,0-1.3-0.6-1.3-1.3s0.6-1.3,1.3-1.3h4.4v-4.4c0-0.7,0.6-1.3,1.3-1.3s1.3,0.6,1.3,1.3v4.4h4.4
			c0.7,0,1.3,0.6,1.3,1.3S83,67.4,82.2,67.4z"/>
	</g>
</g>
</svg>
