<?xml version="1.0" encoding="utf-8"?>
<!-- Generator: Adobe Illustrator 20.0.0, SVG Export Plug-In . SVG Version: 6.00 Build 0)  -->
<svg version="1.1" id="Layer_1" xmlns="http://www.w3.org/2000/svg" xmlns:xlink="http://www.w3.org/1999/xlink" x="0px" y="0px"
	 viewBox="0 0 100 100" style="enable-background:new 0 0 100 100;" xml:space="preserve">
<style type="text/css">
	.st0{fill-rule:evenodd;clip-rule:evenodd;fill:#1A3D82;}
</style>
<path class="st0" d="M95.7,61L84.5,54V30.1c0-0.1,0-0.3-0.1-0.4c0-0.2,0-0.3-0.1-0.5c0-0.1-0.1-0.3-0.2-0.4
	c-0.1-0.1-0.1-0.3-0.2-0.4c-0.1-0.1-0.2-0.2-0.2-0.3c-0.1-0.1-0.2-0.3-0.3-0.4c-0.1-0.1-0.2-0.2-0.3-0.2c-0.1-0.1-0.2-0.2-0.4-0.3
	L46.7,5.4c-1-0.6-2.4-0.6-3.4,0L6.6,27.3c-0.1,0.1-0.3,0.2-0.4,0.3c-0.1,0.1-0.2,0.1-0.3,0.2c-0.1,0.1-0.2,0.3-0.3,0.4
	c-0.1,0.1-0.2,0.2-0.2,0.3c-0.1,0.1-0.1,0.3-0.2,0.4c-0.1,0.1-0.1,0.2-0.2,0.4c0,0.1,0,0.3-0.1,0.4c0,0.1-0.1,0.3-0.1,0.4v43.1
	c0,1.2,0.6,2.3,1.7,2.9l36.4,20.8c0,0,0,0,0,0c0,0,0,0,0,0l0,0c0.1,0.1,0.3,0.1,0.4,0.2c0.1,0.1,0.3,0.1,0.4,0.2
	c0.3,0.1,0.6,0.1,0.8,0.1c0.3,0,0.6,0,0.8-0.1c0.1,0,0.3-0.1,0.4-0.2c0.1-0.1,0.3-0.1,0.4-0.2l0,0c0,0,0,0,0,0c0,0,0,0,0,0l24.5-14
	l9.2,5.3c0.7,0.4,1.5,0.4,2.2,0l13.4-7.9c0.7-0.4,1.1-1.1,1.1-1.9V62.8C96.8,62.1,96.4,61.4,95.7,61z M41.4,88.4L11.6,71.3V35.8
	l10.7,6.1l19.2,11V88.4z M44.7,47.2l-17.6-10l-12.3-7l30.1-17.9l29.7,17.9L44.7,47.2z M48,52.9l19.2-11l10.7-6.1v18.2l-11.2,6.7
	c-0.7,0.4-1.1,1.1-1.1,1.9v15.7L48,88.4V52.9z M87.2,71.9h-4.6v4.6c0,0.8-0.6,1.4-1.4,1.4s-1.4-0.6-1.4-1.4v-4.6h-4.6
	c-0.8,0-1.4-0.6-1.4-1.4c0-0.8,0.6-1.4,1.4-1.4h4.6v-4.6c0-0.8,0.6-1.4,1.4-1.4s1.4,0.6,1.4,1.4v4.6h4.6c0.8,0,1.4,0.6,1.4,1.4
	C88.7,71.3,88,71.9,87.2,71.9z"/>
</svg>
