<?xml version="1.0" encoding="utf-8"?>
<!-- Generator: Adobe Illustrator 20.0.0, SVG Export Plug-In . SVG Version: 6.00 Build 0)  -->
<svg version="1.1" id="Layer_1" xmlns="http://www.w3.org/2000/svg" xmlns:xlink="http://www.w3.org/1999/xlink" x="0px" y="0px"
	 viewBox="0 0 300 300" style="enable-background:new 0 0 300 300;" xml:space="preserve">
<style type="text/css">
	.st0{fill:#FFFFFF;}
	.st1{fill-rule:evenodd;clip-rule:evenodd;fill:#FFFFFF;}
</style>
<g>
	<path class="st0" d="M99.5,176.2H68.8c-3.5,0-6.4-2.8-6.4-6.4V71.4c0-3.5,2.9-6.4,6.4-6.4h72.1c3.5,0,6.4,2.9,6.4,6.4v30.7
		c0,3.5-2.9,6.4-6.4,6.4c-3.5,0-6.4-2.9-6.4-6.4V77.8H75.2v85.6h24.4c3.5,0,6.4,2.8,6.4,6.4S103,176.2,99.5,176.2z"/>
</g>
<g>
	<path class="st0" d="M231.1,176.2h-31.4c-3.5,0-6.4-2.8-6.4-6.4s2.8-6.4,6.4-6.4h25.1V77.8h-59.4v26c0,3.5-2.8,6.4-6.4,6.4
		s-6.4-2.9-6.4-6.4V71.4c0-3.5,2.9-6.4,6.4-6.4h72.1c3.5,0,6.4,2.9,6.4,6.4v98.4C237.5,173.3,234.7,176.2,231.1,176.2z"/>
</g>
<g>
	<path class="st0" d="M194,233.5h-93.7c-3.5,0-6.4-2.8-6.4-6.4V108.4c0-3.5,2.9-6.4,6.4-6.4H194c3.5,0,6.4,2.9,6.4,6.4v118.8
		C200.4,230.7,197.6,233.5,194,233.5z M106.7,220.8h81v-106h-81V220.8z"/>
</g>
<g>
	<path class="st0" d="M173.1,203.6h-51.9c-3.5,0-6.4-2.8-6.4-6.4s2.9-6.4,6.4-6.4h51.9c3.5,0,6.4,2.8,6.4,6.4
		S176.6,203.6,173.1,203.6z"/>
</g>
<g>
	<path class="st1" d="M170.3,135.7l-21.2-13.1c-1.1-0.7-2.5-0.7-3.6,0l-21.4,12.8c-1,0.6-1.7,1.7-1.7,3v25.7c0,1.2,0.7,2.4,1.7,3
		l21.3,12.2c1.1,0.6,2.4,0.6,3.4,0l21.4-12.5c1.1-0.6,1.7-1.7,1.7-3v-25C171.9,137.4,171.3,136.3,170.3,135.7z M156.8,153.1h-7.4
		v7.4c0,1.2-1,2.3-2.3,2.3c-1.2,0-2.3-1-2.3-2.3v-7.4h-7.4c-1.2,0-2.3-1-2.3-2.3c0-1.2,1-2.3,2.3-2.3h7.4v-7.4c0-1.2,1-2.3,2.3-2.3
		c1.2,0,2.3,1,2.3,2.3v7.4h7.4c1.2,0,2.3,1,2.3,2.3C159.1,152.1,158,153.1,156.8,153.1z"/>
</g>
</svg>
