<?xml version="1.0" encoding="utf-8"?>
<!-- Generator: Adobe Illustrator 20.0.0, SVG Export Plug-In . SVG Version: 6.00 Build 0)  -->
<svg version="1.1" id="Layer_1" xmlns="http://www.w3.org/2000/svg" xmlns:xlink="http://www.w3.org/1999/xlink" x="0px" y="0px"
	 viewBox="0 0 300 300" style="enable-background:new 0 0 300 300;" xml:space="preserve">
<style type="text/css">
	.st0{fill:#FFFFFF;}
	.st1{fill-rule:evenodd;clip-rule:evenodd;fill:#FFFFFF;}
</style>
<g>
	<path class="st0" d="M77.6,187.9H33.5c-5,0-9.1-4.1-9.1-9.1V37.6c0-5,4.1-9.1,9.1-9.1H137c5,0,9.1,4.1,9.1,9.1v44.1
		c0,5-4.1,9.1-9.1,9.1c-5,0-9.1-4.1-9.1-9.1V46.7H42.6v122.9h35c5,0,9.1,4.1,9.1,9.1C86.7,183.8,82.6,187.9,77.6,187.9z"/>
</g>
<g>
	<path class="st0" d="M266.5,187.9h-45.1c-5,0-9.1-4.1-9.1-9.1c0-5,4.1-9.1,9.1-9.1h36V46.7h-85.2v37.4c0,5-4.1,9.1-9.1,9.1
		c-5,0-9.1-4.1-9.1-9.1V37.6c0-5,4.1-9.1,9.1-9.1h103.5c5,0,9.1,4.1,9.1,9.1v141.2C275.6,183.8,271.5,187.9,266.5,187.9z"/>
</g>
<g>
	<path class="st0" d="M213.2,270.2H78.7c-5,0-9.1-4.1-9.1-9.1V90.6c0-5,4.1-9.1,9.1-9.1h134.5c5,0,9.1,4.1,9.1,9.1V261
		C222.4,266.1,218.3,270.2,213.2,270.2z M87.8,251.9h116.3V99.7H87.8V251.9z"/>
</g>
<g>
	<path class="st0" d="M183.2,227.2h-74.5c-5,0-9.1-4.1-9.1-9.1c0-5,4.1-9.1,9.1-9.1h74.5c5,0,9.1,4.1,9.1,9.1
		C192.3,223.1,188.2,227.2,183.2,227.2z"/>
</g>
<g>
	<path class="st1" d="M179.2,129.7l-30.4-18.8c-1.6-1-3.5-1-5.1,0l-30.8,18.3c-1.5,0.9-2.4,2.5-2.4,4.2v36.9c0,1.8,0.9,3.4,2.5,4.3
		l30.6,17.5c1.5,0.9,3.4,0.9,4.9,0l30.6-18c1.5-0.9,2.4-2.5,2.4-4.3v-35.9C181.5,132.2,180.6,130.6,179.2,129.7z M159.8,154.7h-10.6
		v10.6c0,1.8-1.5,3.2-3.2,3.2c-1.8,0-3.2-1.5-3.2-3.2v-10.6h-10.6c-1.8,0-3.2-1.5-3.2-3.2c0-1.8,1.5-3.2,3.2-3.2h10.6v-10.6
		c0-1.8,1.5-3.2,3.2-3.2c1.8,0,3.2,1.5,3.2,3.2v10.6h10.6c1.8,0,3.2,1.5,3.2,3.2C163,153.2,161.6,154.7,159.8,154.7z"/>
</g>
</svg>
