<?xml version="1.0" encoding="utf-8"?>
<!-- Generator: Adobe Illustrator 20.0.0, SVG Export Plug-In . SVG Version: 6.00 Build 0)  -->
<svg version="1.1" id="Layer_1" xmlns="http://www.w3.org/2000/svg" xmlns:xlink="http://www.w3.org/1999/xlink" x="0px" y="0px"
	 viewBox="0 0 300 300" style="enable-background:new 0 0 300 300;" xml:space="preserve">
<style type="text/css">
	.st0{fill:#1A3D82;}
</style>
<g>
	<g>
		<path class="st0" d="M219,245.5H81c-4.5,0-8.1-3.6-8.1-8.1V62.6c0-4.5,3.6-8.1,8.1-8.1h138c4.5,0,8.1,3.6,8.1,8.1v174.8
			C227.1,241.9,223.5,245.5,219,245.5z M89.2,229.3h121.7V70.7H89.2V229.3z"/>
	</g>
	<g>
		<path class="st0" d="M188.2,112h-76.4c-4.5,0-8.1-3.6-8.1-8.1c0-4.5,3.6-8.1,8.1-8.1h76.4c4.5,0,8.1,3.6,8.1,8.1
			C196.3,108.3,192.7,112,188.2,112z"/>
	</g>
	<g>
		<path class="st0" d="M188.2,141.8h-76.4c-4.5,0-8.1-3.6-8.1-8.1s3.6-8.1,8.1-8.1h76.4c4.5,0,8.1,3.6,8.1,8.1
			S192.7,141.8,188.2,141.8z"/>
	</g>
	<g>
		<path class="st0" d="M188.2,170.5h-76.4c-4.5,0-8.1-3.6-8.1-8.1s3.6-8.1,8.1-8.1h76.4c4.5,0,8.1,3.6,8.1,8.1
			S192.7,170.5,188.2,170.5z"/>
	</g>
	<g>
		<path class="st0" d="M188.2,200.4h-76.4c-4.5,0-8.1-3.6-8.1-8.1s3.6-8.1,8.1-8.1h76.4c4.5,0,8.1,3.6,8.1,8.1
			S192.7,200.4,188.2,200.4z"/>
	</g>
</g>
</svg>
