<?xml version="1.0" encoding="utf-8"?>
<!-- Generator: Adobe Illustrator 20.0.0, SVG Export Plug-In . SVG Version: 6.00 Build 0)  -->
<svg version="1.1" id="Layer_1" xmlns="http://www.w3.org/2000/svg" xmlns:xlink="http://www.w3.org/1999/xlink" x="0px" y="0px"
	 viewBox="0 0 300 300" style="enable-background:new 0 0 300 300;" xml:space="preserve">
<style type="text/css">
	.st0{fill:#FFFFFF;}
</style>
<g>
	<g>
		<path class="st0" d="M244.2,270.2H55.8c-3.4,0-6.1-2.7-6.1-6.1V35.9c0-3.4,2.7-6.1,6.1-6.1h188.3c3.4,0,6.1,2.7,6.1,6.1v228.1
			C250.3,267.4,247.5,270.2,244.2,270.2z M61.9,258h176.1V42H61.9V258z"/>
	</g>
	<g>
		<g>
			<g>
				<path class="st0" d="M212.8,240.9H87.2c-3.4,0-6.1-2.7-6.1-6.1V158c0-3.4,2.7-6.1,6.1-6.1h125.6c3.4,0,6.1,2.7,6.1,6.1v76.7
					C218.9,238.1,216.2,240.9,212.8,240.9z M93.3,228.7h113.4v-64.5H93.3V228.7z"/>
			</g>
			<g>
				<path class="st0" d="M87.2,224.8c-1.9,0-3.8-0.9-5-2.6c-2-2.7-1.3-6.6,1.4-8.5l24.6-17.6c2.2-1.6,5.3-1.5,7.4,0.2l14.5,11.8
					l41.2-30.7c2.3-1.7,5.5-1.6,7.7,0.3l37.7,33.2c2.5,2.2,2.8,6.1,0.5,8.6c-2.2,2.5-6.1,2.8-8.6,0.5l-34-29.9l-41.1,30.6
					c-2.2,1.7-5.3,1.6-7.5-0.2l-14.6-11.9l-20.9,14.9C89.7,224.4,88.4,224.8,87.2,224.8z"/>
			</g>
		</g>
		<g>
			<g>
				<path class="st0" d="M214.6,71.3H85.8c-3.4,0-6.1-2.7-6.1-6.1c0-3.4,2.7-6.1,6.1-6.1h128.8c3.4,0,6.1,2.7,6.1,6.1
					C220.7,68.6,218,71.3,214.6,71.3z"/>
			</g>
			<g>
				<path class="st0" d="M214.6,101.8H85.8c-3.4,0-6.1-2.7-6.1-6.1c0-3.4,2.7-6.1,6.1-6.1h128.8c3.4,0,6.1,2.7,6.1,6.1
					C220.7,99.1,218,101.8,214.6,101.8z"/>
			</g>
			<g>
				<path class="st0" d="M214.6,132.4H85.8c-3.4,0-6.1-2.7-6.1-6.1c0-3.4,2.7-6.1,6.1-6.1h128.8c3.4,0,6.1,2.7,6.1,6.1
					C220.7,129.6,218,132.4,214.6,132.4z"/>
			</g>
		</g>
	</g>
</g>
</svg>
