<?xml version="1.0" encoding="utf-8"?>
<!-- Generator: Adobe Illustrator 20.0.0, SVG Export Plug-In . SVG Version: 6.00 Build 0)  -->
<svg version="1.1" id="Layer_1" xmlns="http://www.w3.org/2000/svg" xmlns:xlink="http://www.w3.org/1999/xlink" x="0px" y="0px"
	 viewBox="0 0 45 37" style="enable-background:new 0 0 45 37;" xml:space="preserve">
<style type="text/css">
	.st0{fill:#1A3D82;}
	.st1{fill:#BFCDE2;}
	.st2{fill:none;stroke:#8B95A5;stroke-linejoin:round;stroke-miterlimit:10;stroke-dasharray:3;}
	.st3{fill:#FFFFFF;}
	.st4{fill:#8B95A5;}
	.st5{fill:url(#SVGID_1_);}
</style>
<g>
	<path class="st0" d="M38.3,15H13.9c-0.5,0-0.9-0.4-0.9-0.9v0c0-0.5,0.4-0.9,0.9-0.9h24.4c0.5,0,0.9,0.4,0.9,0.9v0
		C39.2,14.6,38.8,15,38.3,15z"/>
	<path class="st0" d="M31,32.4h-9.9c-0.7,0-1.3-0.6-1.3-1.3v0c0-0.7,0.6-1.3,1.3-1.3H31c0.7,0,1.3,0.6,1.3,1.3v0
		C32.3,31.8,31.7,32.4,31,32.4z"/>
	<path class="st1" d="M38.3,20.8H13.9c-0.5,0-0.9-0.4-0.9-0.9v0c0-0.5,0.4-0.9,0.9-0.9h24.4c0.5,0,0.9,0.4,0.9,0.9v0
		C39.2,20.3,38.8,20.8,38.3,20.8z"/>
	<path class="st2" d="M39,34.3H13.1c-1.7,0-3.1-1.4-3.1-3.1v0c0-1.7,1.4-3.1,3.1-3.1H39c1.7,0,3.1,1.4,3.1,3.1v0
		C42.1,32.9,40.7,34.3,39,34.3z"/>
	<path class="st3" d="M42,37H10.1c-1.7,0-3-1.4-3-3V3c0-1.7,1.4-3,3-3H42c1.7,0,3,1.4,3,3V34C45,35.6,43.6,37,42,37z"/>
	<path class="st0" d="M38.3,8.5H13.9c-0.5,0-0.9-0.4-0.9-0.9v0c0-0.5,0.4-0.9,0.9-0.9h24.4c0.5,0,0.9,0.4,0.9,0.9v0
		C39.2,8.1,38.8,8.5,38.3,8.5z"/>
	<path class="st0" d="M31,32.4h-9.9c-0.7,0-1.3-0.6-1.3-1.3v0c0-0.7,0.6-1.3,1.3-1.3H31c0.7,0,1.3,0.6,1.3,1.3v0
		C32.3,31.8,31.7,32.4,31,32.4z"/>
	<path class="st1" d="M38.3,15H13.9c-0.5,0-0.9-0.4-0.9-0.9v0c0-0.5,0.4-0.9,0.9-0.9h24.4c0.5,0,0.9,0.4,0.9,0.9v0
		C39.2,14.6,38.8,15,38.3,15z"/>
	<path class="st1" d="M38.3,20.8H13.9c-0.5,0-0.9-0.4-0.9-0.9v0c0-0.5,0.4-0.9,0.9-0.9h24.4c0.5,0,0.9,0.4,0.9,0.9v0
		C39.2,20.3,38.8,20.8,38.3,20.8z"/>
	<g>
		<path class="st4" d="M40,24.9h-1.1v-0.4H40V24.9z M37.7,24.9h-1.1v-0.4h1.1V24.9z M35.5,24.9h-1.1v-0.4h1.1V24.9z M33.3,24.9h-1.1
			v-0.4h1.1V24.9z M31.1,24.9H30v-0.4h1.1V24.9z M28.9,24.9h-1.1v-0.4h1.1V24.9z M26.7,24.9h-1.1v-0.4h1.1V24.9z M24.5,24.9h-1.1
			v-0.4h1.1V24.9z M22.3,24.9h-1.1v-0.4h1.1V24.9z M20.1,24.9H19v-0.4h1.1V24.9z M17.9,24.9h-1.1v-0.4h1.1V24.9z M15.6,24.9h-1.1
			v-0.4h1.1V24.9z M13.4,24.9h-1.1v-0.4h1.1V24.9z M40.8,24.8l-0.1-0.3c0.3-0.1,0.6-0.3,0.8-0.6l0.3,0.2
			C41.5,24.4,41.2,24.7,40.8,24.8z M11.2,24.7c-0.4-0.2-0.7-0.4-0.9-0.7l0.3-0.2c0.2,0.3,0.5,0.5,0.8,0.6L11.2,24.7z M42.3,23.1
			L41.9,23c0-0.1,0-0.3,0-0.4V22h0.4v0.6C42.3,22.8,42.3,22.9,42.3,23.1z M9.8,22.9c0-0.1,0-0.2,0-0.3v-0.8h0.4v0.8
			c0,0.1,0,0.2,0,0.3L9.8,22.9z M42.3,20.9H42v-1.1h0.4V20.9z M10.2,20.7H9.8v-1.1h0.4V20.7z M42.3,18.7H42v-1.1h0.4V18.7z
			 M10.2,18.6H9.8v-1.1h0.4V18.6z M42.3,16.5H42v-1.1h0.4V16.5z M10.2,16.4H9.8v-1.1h0.4V16.4z M42.3,14.4H42v-1.1h0.4V14.4z
			 M10.2,14.2H9.8v-1.1h0.4V14.2z M42.3,12.2H42v-1.1h0.4V12.2z M10.2,12.1H9.8V11h0.4V12.1z M42.3,10H42V9h0.4V10z M10.2,9.9H9.8
			V8.8h0.4V9.9z M42.3,7.9H42V6.8h0.4V7.9z M10.2,7.7H9.8V6.6h0.4V7.7z M42.3,5.7H42v-1c0,0,0-0.1,0-0.1l0.4,0c0,0,0,0.1,0,0.1V5.7z
			 M10.2,5.6H9.8V4.7c0-0.1,0-0.2,0-0.3l0.4,0c0,0.1,0,0.2,0,0.3V5.6z M41.6,3.7c-0.2-0.3-0.4-0.5-0.7-0.7l0.2-0.3
			c0.4,0.2,0.6,0.5,0.9,0.8L41.6,3.7z M10.5,3.6l-0.3-0.2c0.2-0.3,0.6-0.6,0.9-0.7L11.3,3C11,3.1,10.8,3.3,10.5,3.6z M39.9,2.8h-1.1
			V2.4h1.1V2.8z M37.7,2.8h-1.1V2.4h1.1V2.8z M35.5,2.8h-1.1V2.4h1.1V2.8z M33.3,2.8h-1.1V2.4h1.1V2.8z M31.1,2.8H30V2.4h1.1V2.8z
			 M28.9,2.8h-1.1V2.4h1.1V2.8z M26.7,2.8h-1.1V2.4h1.1V2.8z M24.5,2.8h-1.1V2.4h1.1V2.8z M22.3,2.8h-1.1V2.4h1.1V2.8z M20.1,2.8H19
			V2.4h1.1V2.8z M17.8,2.8h-1.1V2.4h1.1V2.8z M15.6,2.8h-1.1V2.4h1.1V2.8z M13.4,2.8h-1.1V2.4h1.1V2.8z"/>
	</g>
	<g>
		<path class="st4" d="M40.9,34.5h-1.1v-0.4h1.1V34.5z M38.6,34.5h-1.1v-0.4h1.1V34.5z M36.4,34.5h-1.1v-0.4h1.1V34.5z M34.2,34.5
			h-1.1v-0.4h1.1V34.5z M32,34.5h-1.1v-0.4H32V34.5z M29.8,34.5h-1.1v-0.4h1.1V34.5z M27.6,34.5h-1.1v-0.4h1.1V34.5z M25.4,34.5
			h-1.1v-0.4h1.1V34.5z M23.2,34.5h-1.1v-0.4h1.1V34.5z M21,34.5h-1.1v-0.4H21V34.5z M18.8,34.5h-1.1v-0.4h1.1V34.5z M16.5,34.5
			h-1.1v-0.4h1.1V34.5z M14.3,34.5h-1.1v-0.4h1.1V34.5z M12.1,34.5h-0.9c-0.1,0-0.2,0-0.3,0l0.1-0.4c0.1,0,0.1,0,0.2,0h0.9V34.5z
			 M41.8,34.1l-0.2-0.3c0.2-0.2,0.4-0.5,0.4-0.8l0.4,0v0C42.3,33.4,42.1,33.8,41.8,34.1z M10,33.7c-0.1-0.2-0.2-0.5-0.2-0.7v-0.4
			h0.4V33c0,0.2,0.1,0.4,0.1,0.5L10,33.7z M42.3,31.9H42v-1.1h0.4V31.9z M10.2,31.5H9.8v-1.1h0.4V31.5z M42.3,29.7H42v-0.5
			c0-0.2,0-0.3-0.1-0.5l0.3-0.2c0.1,0.2,0.2,0.4,0.2,0.6V29.7z M10.2,29.3H9.8v-0.1c0-0.4,0.2-0.7,0.4-1l0.3,0.3
			C10.3,28.7,10.2,29,10.2,29.3L10.2,29.3z M41.1,28.2c-0.1,0-0.2,0-0.3,0h-0.8v-0.4h0.8c0.1,0,0.2,0,0.4,0L41.1,28.2z M39,28.2
			h-1.1v-0.4H39V28.2z M36.8,28.2h-1.1v-0.4h1.1V28.2z M34.6,28.2h-1.1v-0.4h1.1V28.2z M32.3,28.2h-1.1v-0.4h1.1V28.2z M30.1,28.2
			H29v-0.4h1.1V28.2z M27.9,28.2h-1.1v-0.4h1.1V28.2z M25.7,28.2h-1.1v-0.4h1.1V28.2z M23.5,28.2h-1.1v-0.4h1.1V28.2z M21.3,28.2
			h-1.1v-0.4h1.1V28.2z M19.1,28.2H18v-0.4h1.1V28.2z M16.9,28.2h-1.1v-0.4h1.1V28.2z M14.7,28.2h-1.1v-0.4h1.1V28.2z M12.5,28.2
			h-1.1v-0.4h1.1V28.2z"/>
	</g>
	<g>
		<linearGradient id="SVGID_1_" gradientUnits="userSpaceOnUse" x1="0" y1="19.1252" x2="13.2979" y2="19.1252">
			<stop  offset="0" style="stop-color:#62AAF1"/>
			<stop  offset="0.9995" style="stop-color:#5E4BFD"/>
		</linearGradient>
		<ellipse class="st5" cx="6.6" cy="19.1" rx="6.6" ry="6.5"/>
		<g>
			<path class="st3" d="M9.4,15.7v4.3c0,0.5-0.1,0.9-0.3,1.3c-0.2,0.4-0.5,0.7-1,0.9c-0.4,0.2-0.9,0.3-1.5,0.3c-0.9,0-1.6-0.2-2-0.7
				c-0.5-0.4-0.7-1-0.7-1.8v-4.3h1.4v4.1c0,0.5,0.1,0.9,0.3,1.1c0.2,0.2,0.6,0.4,1,0.4c0.5,0,0.8-0.1,1-0.4C7.9,20.7,8,20.3,8,19.8
				v-4.1H9.4z"/>
		</g>
	</g>
</g>
</svg>
