<?xml version="1.0" encoding="utf-8"?>
<!-- Generator: Adobe Illustrator 20.0.0, SVG Export Plug-In . SVG Version: 6.00 Build 0)  -->
<svg version="1.1" id="Layer_1" xmlns="http://www.w3.org/2000/svg" xmlns:xlink="http://www.w3.org/1999/xlink" x="0px" y="0px"
	 viewBox="0 0 100 100" style="enable-background:new 0 0 100 100;" xml:space="preserve">
<style type="text/css">
	.st0{fill:#1A3D82;}
	.st1{fill-rule:evenodd;clip-rule:evenodd;fill:#1A3D82;}
</style>
<g>
	<g>
		<path class="st0" d="M66.2,85.5H18.5c-1.9,0-3.4-1.5-3.4-3.4V17.9c0-1.9,1.5-3.4,3.4-3.4h47.7c1.9,0,3.4,1.5,3.4,3.4v27.2
			c0,1.9-1.5,3.4-3.4,3.4c-1.9,0-3.4-1.5-3.4-3.4V21.3H21.9v57.3h40.9v-10c0-1.9,1.5-3.4,3.4-3.4c1.9,0,3.4,1.5,3.4,3.4v13.4
			C69.7,84,68.1,85.5,66.2,85.5z"/>
	</g>
	<g>
		<path class="st0" d="M55.4,39.6H29.3c-1.9,0-3.4-1.5-3.4-3.4c0-1.9,1.5-3.4,3.4-3.4h26.1c1.9,0,3.4,1.5,3.4,3.4
			C58.9,38.1,57.3,39.6,55.4,39.6z"/>
	</g>
	<g>
		<path class="st0" d="M48.3,56.6h-19c-1.9,0-3.4-1.5-3.4-3.4c0-1.9,1.5-3.4,3.4-3.4h19c1.9,0,3.4,1.5,3.4,3.4
			C51.8,55.1,50.2,56.6,48.3,56.6z"/>
	</g>
	<g>
		<g>
			<path class="st1" d="M84,47.4l-12.6-7.8c-0.6-0.4-1.5-0.4-2.1,0l-12.7,7.6c-0.6,0.4-1,1-1,1.7v15.2c0,0.7,0.4,1.4,1,1.8l12.6,7.2
				c0.6,0.4,1.4,0.4,2,0l12.6-7.4c0.6-0.4,1-1,1-1.8V49.1C84.9,48.4,84.6,47.8,84,47.4z M76,57.7h-4.4v4.4c0,0.7-0.6,1.3-1.3,1.3
				c-0.7,0-1.3-0.6-1.3-1.3v-4.4h-4.4c-0.7,0-1.3-0.6-1.3-1.3c0-0.7,0.6-1.3,1.3-1.3h4.4v-4.4c0-0.7,0.6-1.3,1.3-1.3
				c0.7,0,1.3,0.6,1.3,1.3V55H76c0.7,0,1.3,0.6,1.3,1.3C77.3,57.1,76.7,57.7,76,57.7z"/>
		</g>
	</g>
</g>
</svg>
